<svg width="28" height="28" viewBox="0 0 28 28" fill="none" xmlns="http://www.w3.org/2000/svg">
<path d="M22.75 4.375H5.25C3.80025 4.375 2.625 5.55025 2.625 7V22.75C2.625 24.1997 3.80025 25.375 5.25 25.375H22.75C24.1997 25.375 25.375 24.1997 25.375 22.75V7C25.375 5.55025 24.1997 4.375 22.75 4.375Z" stroke="#3B60B7" stroke-linejoin="round"/>
<path d="M17 12.6875C17 13.1362 16.6362 13.5 16.1875 13.5C15.7388 13.5 15.375 13.1362 15.375 12.6875C15.375 12.2388 15.7388 11.875 16.1875 11.875C16.6362 11.875 17 12.2388 17 12.6875Z" fill="#3B60B7" stroke="#3B60B7"/>
<path d="M21.375 12.6875C21.375 13.1362 21.0112 13.5 20.5625 13.5C20.1138 13.5 19.75 13.1362 19.75 12.6875C19.75 12.2388 20.1138 11.875 20.5625 11.875C21.0112 11.875 21.375 12.2388 21.375 12.6875Z" fill="#3B60B7" stroke="#3B60B7"/>
<path d="M17 17.0625C17 17.5112 16.6362 17.875 16.1875 17.875C15.7388 17.875 15.375 17.5112 15.375 17.0625C15.375 16.6138 15.7388 16.25 16.1875 16.25C16.6362 16.25 17 16.6138 17 17.0625Z" fill="#3B60B7" stroke="#3B60B7"/>
<path d="M21.375 17.0625C21.375 17.5112 21.0112 17.875 20.5625 17.875C20.1138 17.875 19.75 17.5112 19.75 17.0625C19.75 16.6138 20.1138 16.25 20.5625 16.25C21.0112 16.25 21.375 16.6138 21.375 17.0625Z" fill="#3B60B7" stroke="#3B60B7"/>
<path d="M8.25 17.0625C8.25 17.5112 7.88623 17.875 7.4375 17.875C6.98877 17.875 6.625 17.5112 6.625 17.0625C6.625 16.6138 6.98877 16.25 7.4375 16.25C7.88623 16.25 8.25 16.6138 8.25 17.0625Z" fill="#3B60B7" stroke="#3B60B7"/>
<path d="M12.625 17.0625C12.625 17.5112 12.2612 17.875 11.8125 17.875C11.3638 17.875 11 17.5112 11 17.0625C11 16.6138 11.3638 16.25 11.8125 16.25C12.2612 16.25 12.625 16.6138 12.625 17.0625Z" fill="#3B60B7" stroke="#3B60B7"/>
<path d="M8.25 21.4375C8.25 21.8862 7.88623 22.25 7.4375 22.25C6.98877 22.25 6.625 21.8862 6.625 21.4375C6.625 20.9888 6.98877 20.625 7.4375 20.625C7.88623 20.625 8.25 20.9888 8.25 21.4375Z" fill="#3B60B7" stroke="#3B60B7"/>
<path d="M12.625 21.4375C12.625 21.8862 12.2612 22.25 11.8125 22.25C11.3638 22.25 11 21.8862 11 21.4375C11 20.9888 11.3638 20.625 11.8125 20.625C12.2612 20.625 12.625 20.9888 12.625 21.4375Z" fill="#3B60B7" stroke="#3B60B7"/>
<path d="M17 21.4375C17 21.8862 16.6362 22.25 16.1875 22.25C15.7388 22.25 15.375 21.8862 15.375 21.4375C15.375 20.9888 15.7388 20.625 16.1875 20.625C16.6362 20.625 17 20.9888 17 21.4375Z" fill="#3B60B7" stroke="#3B60B7"/>
<path d="M7 2.625V4.375" stroke="#3B60B7" stroke-linecap="round" stroke-linejoin="round"/>
<path d="M21 2.625V4.375" stroke="#3B60B7" stroke-linecap="round" stroke-linejoin="round"/>
<path d="M24 9L4 9" stroke="#3B60B7" stroke-linecap="round" stroke-linejoin="round"/>
</svg>
