<svg width="256" height="256" viewBox="0 0 256 256" fill="none" xmlns="http://www.w3.org/2000/svg">
<g clip-path="url(#clip0_232_2534)">
<g clip-path="url(#clip1_232_2534)">
<path d="M256.57 241.958H235.268V242.119H256.57V241.958Z" fill="#EBEBEB"/>
<path d="M180.238 243.708H174.649V243.869H180.238V243.708Z" fill="#EBEBEB"/>
<path d="M234.625 235.989H222.282V236.15H234.625V235.989Z" fill="#EBEBEB"/>
<path d="M28.7272 237.069H0.94873V237.23H28.7272V237.069Z" fill="#EBEBEB"/>
<path d="M38.5302 237.069H34.458V237.23H38.5302V237.069Z" fill="#EBEBEB"/>
<path d="M112.017 239.784H51.7654V239.945H112.017V239.784Z" fill="#EBEBEB"/>
<path d="M120.54 202.919H-3.65636C-4.63037 202.919 -5.56448 202.532 -6.25321 201.843C-6.94193 201.154 -7.32886 200.22 -7.32886 199.246V24.6453C-7.32038 23.6767 -6.92971 22.7507 -6.2419 22.0688C-5.5541 21.3869 -4.62482 21.0044 -3.65636 21.0044H120.54C121.022 21.0044 121.499 21.0994 121.945 21.284C122.391 21.4686 122.795 21.7391 123.136 22.0802C123.477 22.4213 123.748 22.8262 123.933 23.2718C124.117 23.7174 124.212 24.1951 124.212 24.6774V199.246C124.212 199.728 124.117 200.206 123.933 200.652C123.748 201.097 123.477 201.502 123.136 201.843C122.795 202.184 122.391 202.455 121.945 202.639C121.499 202.824 121.022 202.919 120.54 202.919ZM-3.65636 21.133C-4.5872 21.1347 -5.47943 21.5053 -6.13763 22.1636C-6.79584 22.8219 -7.16636 23.7143 -7.16807 24.6453V199.246C-7.16636 200.177 -6.79584 201.069 -6.13763 201.728C-5.47943 202.386 -4.5872 202.756 -3.65636 202.758H120.54C121.47 202.756 122.363 202.386 123.021 201.728C123.679 201.069 124.05 200.177 124.051 199.246V24.6453C124.05 23.7143 123.679 22.8219 123.021 22.1636C122.363 21.5053 121.47 21.1347 120.54 21.133H-3.65636Z" fill="#EBEBEB"/>
<path d="M259.657 202.919H135.461C134.487 202.919 133.553 202.532 132.864 201.843C132.175 201.154 131.789 200.22 131.789 199.246V24.6453C131.797 23.6767 132.188 22.7507 132.876 22.0688C133.563 21.3869 134.493 21.0044 135.461 21.0044H259.657C260.631 21.0044 261.565 21.3914 262.254 22.0802C262.943 22.769 263.33 23.7033 263.33 24.6774V199.246C263.33 200.22 262.943 201.154 262.254 201.843C261.565 202.532 260.631 202.919 259.657 202.919ZM135.461 21.133C134.53 21.1347 133.638 21.5053 132.98 22.1636C132.322 22.8219 131.951 23.7143 131.949 24.6453V199.246C131.951 200.177 132.322 201.069 132.98 201.728C133.638 202.386 134.53 202.756 135.461 202.758H259.657C260.588 202.756 261.48 202.386 262.138 201.728C262.797 201.069 263.167 200.177 263.169 199.246V24.6453C263.167 23.7143 262.797 22.8219 262.138 22.1636C261.48 21.5053 260.588 21.1347 259.657 21.133H135.461Z" fill="#EBEBEB"/>
<path d="M288.793 231.608H-32.792V231.769H288.793V231.608Z" fill="#EBEBEB"/>
<path d="M7.84322 171.129L1.04492 231.48H4.44729L11.6251 171.129H7.84322Z" fill="#EBEBEB"/>
<path d="M29.0744 171.129L22.2761 231.48H25.6785L32.8563 171.129H29.0744Z" fill="#EBEBEB"/>
<path d="M14.3395 215.835L12.6672 231.48H14.8026L18.1149 215.835H14.3395Z" fill="#F0F0F0"/>
<path d="M33.9047 215.835L35.5834 231.48H33.4481L30.1357 215.835H33.9047Z" fill="#F0F0F0"/>
<path d="M24.373 221.734C26.3611 221.735 28.3276 221.322 30.1474 220.521C31.9673 219.721 33.6008 218.55 34.9442 217.085C36.2876 215.619 37.3114 213.89 37.9507 212.007C38.5901 210.124 38.8309 208.129 38.6578 206.148L33.1266 142.928C32.8144 139.355 31.1742 136.028 28.5297 133.604C25.8852 131.181 22.4285 129.837 18.8418 129.838C16.8542 129.838 14.8885 130.252 13.0694 131.053C11.2503 131.854 9.61758 133.024 8.2749 134.49C6.93222 135.956 5.90893 137.685 5.27 139.567C4.63106 141.449 4.39045 143.444 4.56344 145.424L10.0947 208.644C10.4053 212.217 12.0442 215.544 14.6876 217.967C17.3311 220.391 20.787 221.735 24.373 221.734Z" fill="#E0E0E0"/>
<path d="M36.947 207.376C36.9039 208.04 36.805 208.698 36.6512 209.345C36.3723 210.568 35.9035 211.74 35.2619 212.818C35.1526 213.018 35.0304 213.211 34.9018 213.404C34.4911 214.023 34.0239 214.602 33.5061 215.134L33.2038 215.443C32.2572 216.367 31.1722 217.137 29.9879 217.727C29.6097 217.912 29.221 218.075 28.8238 218.215C27.0277 218.872 25.1045 219.107 23.2032 218.901C21.3019 218.695 19.4735 218.055 17.8596 217.028C16.2458 216.002 14.8898 214.618 13.8969 212.983C12.9039 211.348 12.3005 209.507 12.1336 207.602L7.1876 145.604C7.1876 145.231 7.14258 144.864 7.14258 144.504C7.14399 142.213 7.7777 139.968 8.97384 138.014C10.17 136.061 11.8821 134.476 13.9216 133.433C14.2151 133.274 14.518 133.132 14.8284 133.009C16.1381 132.461 17.5332 132.145 18.9512 132.076C19.1634 132.076 19.3692 132.076 19.5943 132.076C20.1189 132.076 20.6431 132.108 21.1637 132.173L21.6718 132.256C22.4434 132.378 23.2001 132.581 23.9293 132.861L24.2766 132.99C26.4002 133.855 28.2441 135.289 29.6057 137.134C30.9674 138.979 31.7939 141.164 31.9946 143.449L36.9406 205.447C36.9903 206.089 36.9924 206.734 36.947 207.376Z" fill="#FAFAFA"/>
<path d="M33.5058 215.14L33.2035 215.449C32.2569 216.373 31.1719 217.143 29.9877 217.732C29.6094 217.918 29.2207 218.081 28.8235 218.221L13.9084 133.439C14.202 133.28 14.5048 133.138 14.8153 133.015C16.1249 132.467 17.5201 132.151 18.938 132.082L33.5058 215.14Z" fill="white"/>
<path d="M36.9469 207.377C36.9038 208.04 36.8048 208.699 36.651 209.345C36.3721 210.569 35.9033 211.741 35.2618 212.819L21.1506 132.16L21.6587 132.244C22.4304 132.366 23.1871 132.568 23.9163 132.848L36.9469 207.377Z" fill="white"/>
<path d="M233.711 143.655L232.483 142.639C226.366 137.609 225.022 131.504 224.906 130.912C224.78 130.522 224.746 130.107 224.806 129.701C224.867 129.295 225.02 128.908 225.254 128.571C225.447 128.319 225.697 128.116 225.983 127.978C226.269 127.839 226.583 127.769 226.9 127.773C227.421 127.771 227.93 127.933 228.354 128.236C229.113 128.809 231.023 130.166 231.428 130.436C235.03 131.639 234.129 140.33 233.911 142.066L233.711 143.655ZM226.9 129.536C226.854 129.53 226.807 129.537 226.765 129.555C226.722 129.573 226.684 129.602 226.656 129.639C226.589 129.768 226.55 129.91 226.542 130.055C226.535 130.2 226.558 130.346 226.611 130.481V130.552C227.569 134.222 229.545 137.546 232.309 140.143C232.534 136.669 232.251 132.514 230.824 132.096C229.599 131.345 228.416 130.529 227.28 129.651C227.169 129.574 227.036 129.533 226.9 129.536Z" fill="#F0F0F0"/>
<path d="M244.954 143.655L244.755 142.066C244.536 140.33 243.642 131.639 247.237 130.436C247.642 130.192 249.546 128.815 250.312 128.236C250.735 127.933 251.244 127.771 251.765 127.773C252.083 127.769 252.397 127.838 252.683 127.977C252.969 128.115 253.218 128.319 253.412 128.571C253.647 128.907 253.801 129.294 253.861 129.701C253.922 130.107 253.887 130.522 253.759 130.912C253.643 131.504 252.299 137.609 246.189 142.639L244.954 143.655ZM251.386 129.651C250.251 130.529 249.07 131.345 247.848 132.096C246.42 132.514 246.131 136.669 246.363 140.143C249.127 137.547 251.1 134.222 252.055 130.552V130.481C252.108 130.346 252.132 130.201 252.126 130.056C252.119 129.911 252.082 129.768 252.016 129.639C251.985 129.603 251.947 129.575 251.903 129.557C251.859 129.539 251.812 129.532 251.765 129.536C251.623 129.531 251.484 129.572 251.366 129.651H251.386Z" fill="#F0F0F0"/>
<path d="M239.326 152.095C234.824 152.095 231.216 137.171 231.216 132.687V128.075H247.437V132.687C247.437 137.171 243.803 152.095 239.326 152.095Z" fill="#F5F5F5"/>
<path d="M240.704 151.361H238.072V164.336H240.704V151.361Z" fill="#F5F5F5"/>
<path d="M246.26 171.148H232.258L231.145 167.063H247.366L246.26 171.148Z" fill="#E6E6E6"/>
<path d="M240.754 160.489L238.059 160.527L236.747 162.805H242.002L240.754 160.489Z" fill="#F0F0F0"/>
<path d="M241.565 161.827H237.172L235.184 164.445H243.603L241.565 161.827Z" fill="#EBEBEB"/>
<path d="M235.223 164.092H243.539L247.366 167.064H231.145L235.223 164.092Z" fill="#F5F5F5"/>
<path d="M238.059 153.51L240.754 153.472L241.989 150.609H236.741L238.059 153.51Z" fill="#F0F0F0"/>
<path d="M250.35 174.898H210.68V224.783H250.35V174.898Z" fill="#E0E0E0"/>
<path d="M256.409 171.186H251.424V231.254H256.409V171.186Z" fill="#E6E6E6"/>
<path d="M220.244 178.829H216.996V197.47H220.244V178.829Z" fill="#FAFAFA"/>
<path d="M233.725 178.829H230.476V197.47H233.725V178.829Z" fill="#F5F5F5"/>
<path d="M223.499 180.134H220.25V197.463H223.499V180.134Z" fill="#F5F5F5"/>
<path d="M230.477 180.134H227.228V197.463H230.477V180.134Z" fill="#FAFAFA"/>
<path d="M227.229 178.829H225.125V197.47H227.229V178.829Z" fill="#EBEBEB"/>
<path d="M225.126 180.134H223.498V197.463H225.126V180.134Z" fill="#FAFAFA"/>
<path d="M236.973 178.829H233.724V197.47H236.973V178.829Z" fill="#EBEBEB"/>
<path d="M240.227 180.134H236.979V197.463H240.227V180.134Z" fill="#E6E6E6"/>
<path d="M247.206 180.134H243.957V197.463H247.206V180.134Z" fill="#E6E6E6"/>
<path d="M243.958 178.829H241.854V197.47H243.958V178.829Z" fill="#FAFAFA"/>
<path d="M241.854 180.134H240.227V197.463H241.854V180.134Z" fill="#EBEBEB"/>
<path d="M248.833 179.266H247.205V197.464H248.833V179.266Z" fill="#FAFAFA"/>
<path d="M245.584 222.455H248.833V203.813H245.584V222.455Z" fill="#FAFAFA"/>
<path d="M232.103 222.455H235.352V203.813H232.103V222.455Z" fill="#FAFAFA"/>
<path d="M242.329 222.455H245.578V205.125H242.329V222.455Z" fill="#F0F0F0"/>
<path d="M235.357 222.455H238.606V205.125H235.357V222.455Z" fill="#EBEBEB"/>
<path d="M238.606 222.455H240.709V203.813H238.606V222.455Z" fill="#FAFAFA"/>
<path d="M240.702 222.455H242.33V205.125H240.702V222.455Z" fill="#F5F5F5"/>
<path d="M228.855 222.455H232.104V203.813H228.855V222.455Z" fill="#EBEBEB"/>
<path d="M225.601 222.455H228.849V205.125H225.601V222.455Z" fill="#F5F5F5"/>
<path d="M218.628 222.455H221.877V205.125H218.628V222.455Z" fill="#E6E6E6"/>
<path d="M221.877 222.455H223.98V203.813H221.877V222.455Z" fill="#FAFAFA"/>
<path d="M214.892 222.455H216.996V203.813H214.892V222.455Z" fill="#FAFAFA"/>
<path d="M223.973 222.455H225.601V205.125H223.973V222.455Z" fill="#EBEBEB"/>
<path d="M216.995 222.455H218.623V204.257H216.995V222.455Z" fill="#F0F0F0"/>
<path d="M250.157 171.186H209.426V227.89H248.826V231.26H251.489V171.186H250.157ZM248.826 222.454H211.934V200.583H248.826V222.454ZM248.826 197.489H211.934V176.628H248.826V197.489Z" fill="#E6E6E6"/>
<path d="M170.945 224.79H210.615V174.905H170.945V224.79Z" fill="#E0E0E0"/>
<path d="M172.475 231.254H177.46V227.279H172.475V231.254Z" fill="#E6E6E6"/>
<path d="M206.035 197.471H209.284V178.829H206.035V197.471Z" fill="#FAFAFA"/>
<path d="M192.548 197.471H195.797V178.829H192.548V197.471Z" fill="#F5F5F5"/>
<path d="M202.781 197.471H206.03V180.141H202.781V197.471Z" fill="#F5F5F5"/>
<path d="M195.802 197.471H199.051V180.141H195.802V197.471Z" fill="#FAFAFA"/>
<path d="M199.051 197.471H201.154V178.829H199.051V197.471Z" fill="#EBEBEB"/>
<path d="M201.154 197.471H202.781V180.141H201.154V197.471Z" fill="#FAFAFA"/>
<path d="M191.448 197.471H194.697V178.829H191.448V197.471Z" fill="#EBEBEB"/>
<path d="M188.194 197.471H191.443V180.141H188.194V197.471Z" fill="#E6E6E6"/>
<path d="M181.222 197.471H184.471V180.141H181.222V197.471Z" fill="#E6E6E6"/>
<path d="M184.464 197.471H186.567V178.829H184.464V197.471Z" fill="#FAFAFA"/>
<path d="M186.567 197.471H188.194V180.141H186.567V197.471Z" fill="#EBEBEB"/>
<path d="M179.595 197.471H181.223V179.273H179.595V197.471Z" fill="#F5F5F5"/>
<path d="M181.313 203.813H178.065V222.455H181.313V203.813Z" fill="#FAFAFA"/>
<path d="M194.794 203.813H191.545V222.455H194.794V203.813Z" fill="#FAFAFA"/>
<path d="M184.561 205.125H181.313V222.454H184.561V205.125Z" fill="#F5F5F5"/>
<path d="M191.54 205.125H188.291V222.454H191.54V205.125Z" fill="#EBEBEB"/>
<path d="M188.298 203.813H186.194V222.455H188.298V203.813Z" fill="#FAFAFA"/>
<path d="M186.194 205.125H184.567V222.454H186.194V205.125Z" fill="#F5F5F5"/>
<path d="M195.9 203.813H192.652V222.455H195.9V203.813Z" fill="#EBEBEB"/>
<path d="M199.149 205.125H195.9V222.454H199.149V205.125Z" fill="#F5F5F5"/>
<path d="M206.127 205.125H202.878V222.454H206.127V205.125Z" fill="#E6E6E6"/>
<path d="M202.879 203.813H200.775V222.455H202.879V203.813Z" fill="#FAFAFA"/>
<path d="M209.432 203.813H207.329V222.455H209.432V203.813Z" fill="#FAFAFA"/>
<path d="M200.781 205.125H199.154V222.454H200.781V205.125Z" fill="#EBEBEB"/>
<path d="M207.754 204.257H206.126V222.455H207.754V204.257Z" fill="#EBEBEB"/>
<path d="M169.806 171.186V231.26H172.469V227.89H211.869V171.186H169.806ZM172.469 200.596H209.361V222.467H172.475L172.469 200.596ZM172.469 176.628H209.361V197.489H172.475L172.469 176.628Z" fill="#E6E6E6"/>
<path d="M129.287 77.9129L145.43 27.5776L145.231 80.4409L176.141 37.5546L159.618 87.7677L202.261 56.5373L171.035 99.1856L221.241 82.6602L178.36 113.575L231.216 113.376L180.888 129.522L231.216 145.668L178.36 145.468L221.241 176.383L171.035 159.858L202.261 202.506L159.618 171.276L176.141 221.489L145.231 178.603L145.43 231.466L129.287 181.131L113.143 231.466L113.342 178.603L82.4317 221.489L98.9548 171.276L56.3126 202.506L87.5385 159.858L37.3327 176.383L80.2128 145.468L27.3572 145.668L77.6852 129.522L27.3572 113.376L80.2128 113.575L37.3327 82.6602L87.5385 99.1856L56.3126 56.5373L98.9548 87.7677L82.4317 37.5546L113.342 80.4409L113.143 27.5776L129.287 77.9129Z" fill="#F5F5F5"/>
<path d="M140.175 108.218C137.866 106.726 136.959 103.227 136.708 99.5535C136.556 96.7616 136.67 93.9614 137.049 91.1911C137.12 90.4835 137.223 89.8017 137.345 89.1584C137.448 88.5082 137.585 87.864 137.757 87.2286L116.783 78.5703C119.086 82.0439 120.841 93.1659 120.353 96.7425C119.819 100.756 119.658 106.391 117.574 107.845L140.175 108.218Z" fill="#407BFF"/>
<g opacity="0.7">
<path d="M140.175 108.218C137.866 106.726 136.959 103.227 136.708 99.5535C136.556 96.7616 136.67 93.9614 137.049 91.1911C137.12 90.4835 137.223 89.8017 137.345 89.1584C137.448 88.5082 137.585 87.864 137.757 87.2286L116.783 78.5703C119.086 82.0439 120.841 93.1659 120.353 96.7425C119.819 100.756 119.658 106.391 117.574 107.845L140.175 108.218Z" fill="white"/>
</g>
<path d="M117.574 107.845C113.072 111.061 115.001 116.117 118.661 120.247C120.069 121.83 121.584 123.316 123.195 124.692C130.206 130.693 141.204 128.146 144.478 119.514C145.912 115.686 145.417 111.582 140.175 108.224L117.574 107.845Z" fill="#FFB573"/>
<path opacity="0.2" d="M136.708 99.5539C136.556 96.7619 136.67 93.9618 137.049 91.1915C137.12 90.4839 137.223 89.8021 137.345 89.1588L121.131 86.0454C124.533 89.4161 129.286 96.3119 136.708 99.5539Z" fill="black"/>
<path d="M158.1 61.9418C157.585 65.4283 152.807 71.0955 153.038 70.7545C153.231 70.3849 153.298 69.9629 153.231 69.5516C153.126 67.9819 152.741 66.4437 152.093 65.0102C151.688 66.94 151.07 70.9861 149.147 71.0183C148.382 69.5774 147.443 68.2651 147.578 66.6312C147.134 68.3037 146.722 69.9891 146.291 71.6615C142.561 69.3651 140.201 64.0646 140.979 59.639C141.147 58.5656 141.52 57.5347 142.079 56.6028C142.77 55.5857 143.609 54.6773 144.568 53.9075C147.005 51.7719 147.996 50.7812 151.199 50.7812C158.19 50.7812 158.615 58.4554 158.1 61.9418Z" fill="#407BFF"/>
<path opacity="0.3" d="M158.1 61.9418C157.585 65.4283 152.807 71.0955 153.038 70.7545C153.231 70.3849 153.298 69.9629 153.231 69.5516C153.126 67.9819 152.741 66.4437 152.093 65.0102C151.688 66.94 151.07 70.9861 149.147 71.0183C148.382 69.5774 147.443 68.2651 147.578 66.6312C147.134 68.3037 146.722 69.9891 146.291 71.6615C142.561 69.3651 140.201 64.0646 140.979 59.639C141.147 58.5656 141.52 57.5347 142.079 56.6028C142.77 55.5857 143.609 54.6773 144.568 53.9075C147.005 51.7719 147.996 50.7812 151.199 50.7812C158.19 50.7812 158.615 58.4554 158.1 61.9418Z" fill="black"/>
<path d="M154.479 79.0147C151.874 93.2115 134.882 100.699 123.665 90.5291C117.188 84.669 116.159 77.6639 114.976 66.7799C114.789 65.1267 114.603 63.3899 114.397 61.5437C114.05 58.6696 114.344 55.7543 115.259 53.0076C115.634 51.8648 116.125 50.7633 116.725 49.7206C118.918 45.7751 122.426 42.7237 126.636 41.0971C130.847 39.4704 135.494 39.3716 139.77 40.8178C153.829 45.5522 156.839 66.2395 154.479 79.0147Z" fill="#407BFF"/>
<path opacity="0.7" d="M154.479 79.0147C151.874 93.2115 134.882 100.699 123.665 90.5291C117.188 84.669 116.159 77.6639 114.976 66.7799C114.789 65.1267 114.603 63.3899 114.397 61.5437C114.05 58.6696 114.344 55.7543 115.259 53.0076C115.634 51.8648 116.125 50.7633 116.725 49.7206C118.918 45.7751 122.426 42.7237 126.636 41.0971C130.847 39.4704 135.494 39.3716 139.77 40.8178C153.829 45.5522 156.839 66.2395 154.479 79.0147Z" fill="white"/>
<path d="M136.934 61.9611C137.68 61.9096 138.33 62.8103 138.388 63.9489C138.446 65.0876 137.995 66.0526 137.159 66.0976C136.323 66.1426 135.666 65.2549 135.602 64.1033C135.538 62.9518 136.194 62.0061 136.934 61.9611Z" fill="#407BFF"/>
<path opacity="0.3" d="M136.934 61.9611C137.68 61.9096 138.33 62.8103 138.388 63.9489C138.446 65.0876 137.995 66.0526 137.159 66.0976C136.323 66.1426 135.666 65.2549 135.602 64.1033C135.538 62.9518 136.194 62.0061 136.934 61.9611Z" fill="black"/>
<path d="M149.668 61.8459C150.415 61.7944 151.064 62.6822 151.129 63.8209C151.193 64.9595 150.653 65.9181 149.894 65.9695C149.135 66.021 148.485 65.1332 148.42 63.9946C148.356 62.8559 148.929 61.8909 149.668 61.8459Z" fill="#407BFF"/>
<path opacity="0.3" d="M149.668 61.8459C150.415 61.7944 151.064 62.6822 151.129 63.8209C151.193 64.9595 150.653 65.9181 149.894 65.9695C149.135 66.021 148.485 65.1332 148.42 63.9946C148.356 62.8559 148.929 61.8909 149.668 61.8459Z" fill="black"/>
<path d="M144.311 75.2196C146.24 75.419 149.758 74.2482 151.154 72.8779C148.498 70.2467 145.533 67.2875 143.713 64.0259L144.311 75.2196Z" fill="#407BFF"/>
<path opacity="0.5" d="M144.311 75.2196C146.24 75.419 149.758 74.2482 151.154 72.8779C148.498 70.2467 145.533 67.2875 143.713 64.0259L144.311 75.2196Z" fill="white"/>
<path d="M134.805 57.4846C135.639 57.3269 136.498 57.3676 137.314 57.6034C138.13 57.8392 138.878 58.2635 139.5 58.842C139.536 58.9027 139.581 58.957 139.635 59.0028C139.702 59.0607 139.78 59.1048 139.864 59.1326C139.948 59.1603 140.037 59.1712 140.125 59.1646C140.214 59.1581 140.3 59.1342 140.379 59.0943C140.458 59.0543 140.529 58.9992 140.587 58.9321C140.645 58.8649 140.689 58.787 140.716 58.7028C140.744 58.6186 140.755 58.5298 140.748 58.4414C140.742 58.353 140.718 58.2667 140.678 58.1875C140.638 58.1084 140.583 58.0378 140.516 57.98C139.755 57.2354 138.828 56.6835 137.811 56.3701C136.794 56.0568 135.717 55.9911 134.67 56.1787C134.581 56.1878 134.495 56.2152 134.418 56.2592C134.341 56.3031 134.273 56.3627 134.22 56.434C134.167 56.5054 134.129 56.587 134.109 56.6737C134.089 56.7604 134.087 56.8503 134.104 56.9378C134.118 57.0547 134.167 57.1646 134.245 57.253C134.314 57.3318 134.401 57.3936 134.498 57.4337C134.595 57.4738 134.7 57.4913 134.805 57.4846Z" fill="#407BFF"/>
<path opacity="0.3" d="M134.805 57.4846C135.639 57.3269 136.498 57.3676 137.314 57.6034C138.13 57.8392 138.878 58.2635 139.5 58.842C139.536 58.9027 139.581 58.957 139.635 59.0028C139.702 59.0607 139.78 59.1048 139.864 59.1326C139.948 59.1603 140.037 59.1712 140.125 59.1646C140.214 59.1581 140.3 59.1342 140.379 59.0943C140.458 59.0543 140.529 58.9992 140.587 58.9321C140.645 58.8649 140.689 58.787 140.716 58.7028C140.744 58.6186 140.755 58.5298 140.748 58.4414C140.742 58.353 140.718 58.2667 140.678 58.1875C140.638 58.1084 140.583 58.0378 140.516 57.98C139.755 57.2354 138.828 56.6835 137.811 56.3701C136.794 56.0568 135.717 55.9911 134.67 56.1787C134.581 56.1878 134.495 56.2152 134.418 56.2592C134.341 56.3031 134.273 56.3627 134.22 56.434C134.167 56.5054 134.129 56.587 134.109 56.6737C134.089 56.7604 134.087 56.8503 134.104 56.9378C134.118 57.0547 134.167 57.1646 134.245 57.253C134.314 57.3318 134.401 57.3936 134.498 57.4337C134.595 57.4738 134.7 57.4913 134.805 57.4846Z" fill="black"/>
<path d="M154.318 56.1206C154.308 55.9465 154.232 55.7828 154.105 55.6631C153.979 55.5435 153.811 55.477 153.637 55.4772C152.574 55.4501 151.521 55.6811 150.568 56.1506C149.615 56.6201 148.789 57.314 148.163 58.1727C148.115 58.2448 148.082 58.3259 148.066 58.4112C148.05 58.4964 148.051 58.5841 148.069 58.6688C148.088 58.7536 148.124 58.8336 148.174 58.9043C148.224 58.9749 148.289 59.0346 148.363 59.0798H148.408C148.554 59.1674 148.728 59.1935 148.893 59.1525C149.058 59.1115 149.201 59.0067 149.289 58.8611C149.799 58.1931 150.46 57.6559 151.218 57.2935C151.976 56.9311 152.809 56.754 153.649 56.7767C153.761 56.7817 153.871 56.7576 153.971 56.7068C154.07 56.6561 154.154 56.5804 154.215 56.4873C154.277 56.3742 154.312 56.2489 154.318 56.1206Z" fill="#407BFF"/>
<path opacity="0.3" d="M154.318 56.1206C154.308 55.9465 154.232 55.7828 154.105 55.6631C153.979 55.5435 153.811 55.477 153.637 55.4772C152.574 55.4501 151.521 55.6811 150.568 56.1506C149.615 56.6201 148.789 57.314 148.163 58.1727C148.115 58.2448 148.082 58.3259 148.066 58.4112C148.05 58.4964 148.051 58.5841 148.069 58.6688C148.088 58.7536 148.124 58.8336 148.174 58.9043C148.224 58.9749 148.289 59.0346 148.363 59.0798H148.408C148.554 59.1674 148.728 59.1935 148.893 59.1525C149.058 59.1115 149.201 59.0067 149.289 58.8611C149.799 58.1931 150.46 57.6559 151.218 57.2935C151.976 56.9311 152.809 56.754 153.649 56.7767C153.761 56.7817 153.871 56.7576 153.971 56.7068C154.07 56.6561 154.154 56.5804 154.215 56.4873C154.277 56.3742 154.312 56.2489 154.318 56.1206Z" fill="black"/>
<path d="M122.385 87.4864C120.667 87.1607 119.046 86.4479 117.645 85.4022C117.645 87.287 116.358 90.5483 116.358 90.5483C110.364 88.5735 105.425 76.5831 104.781 72.6077C101.45 78.8023 101.739 75.2387 101.482 72.6077C101.109 68.8189 101.012 64.8886 102.305 61.3185C103.598 57.7484 106.544 54.5514 110.3 53.9338C110.999 53.8699 111.702 53.9942 112.336 54.294C112.971 54.5938 113.514 55.058 113.908 55.6385C114.547 56.7852 114.964 58.0423 115.136 59.3437C116.892 68.7417 116.815 79.7158 122.385 87.4864Z" fill="#407BFF"/>
<path opacity="0.3" d="M122.385 87.4864C120.667 87.1607 119.046 86.4479 117.645 85.4022C117.645 87.287 116.358 90.5483 116.358 90.5483C110.364 88.5735 105.425 76.5831 104.781 72.6077C101.45 78.8023 101.739 75.2387 101.482 72.6077C101.109 68.8189 101.012 64.8886 102.305 61.3185C103.598 57.7484 106.544 54.5514 110.3 53.9338C110.999 53.8699 111.702 53.9942 112.336 54.294C112.971 54.5938 113.514 55.058 113.908 55.6385C114.547 56.7852 114.964 58.0423 115.136 59.3437C116.892 68.7417 116.815 79.7158 122.385 87.4864Z" fill="black"/>
<path d="M113.889 65.9371C118.474 66.04 121.272 71.823 121.761 75.779C122.333 80.1854 119.375 83.8069 115.124 81.8579C113.538 81.1225 112.116 80.0779 110.94 78.7856C109.764 77.4932 108.857 75.979 108.274 74.3317C106.852 70.2405 109.296 65.8406 113.889 65.9371Z" fill="#407BFF"/>
<path opacity="0.7" d="M113.889 65.9371C118.474 66.04 121.272 71.823 121.761 75.779C122.333 80.1854 119.375 83.8069 115.124 81.8579C113.538 81.1225 112.116 80.0779 110.94 78.7856C109.764 77.4932 108.857 75.979 108.274 74.3317C106.852 70.2405 109.296 65.8406 113.889 65.9371Z" fill="white"/>
<path d="M123.073 52.4476C124.273 53.7398 125.169 55.2835 125.696 56.9661C126.224 58.6487 126.369 60.4278 126.122 62.1738C125.588 65.6602 120.655 71.3209 120.886 70.98C121.083 70.6119 121.155 70.1898 121.092 69.7771C120.978 68.2038 120.577 66.6646 119.909 65.2357C119.491 67.1655 118.854 71.2116 116.866 71.2373C116.075 69.8028 115.104 68.4906 115.239 66.8503C114.783 68.5292 114.358 70.2145 113.901 71.887C110.042 69.5841 107.598 64.2837 108.396 59.858C108.572 58.7808 108.958 57.7489 109.534 56.8218C110.255 55.8021 111.122 54.894 112.107 54.1265C114.628 51.9909 117.966 49.8617 121.008 51.1418C121.446 51.3477 123.189 51.9845 123.073 52.4476Z" fill="#407BFF"/>
<path opacity="0.3" d="M123.073 52.4476C124.273 53.7398 125.169 55.2835 125.696 56.9661C126.224 58.6487 126.369 60.4278 126.122 62.1738C125.588 65.6602 120.655 71.3209 120.886 70.98C121.083 70.6119 121.155 70.1898 121.092 69.7771C120.978 68.2038 120.577 66.6646 119.909 65.2357C119.491 67.1655 118.854 71.2116 116.866 71.2373C116.075 69.8028 115.104 68.4906 115.239 66.8503C114.783 68.5292 114.358 70.2145 113.901 71.887C110.042 69.5841 107.598 64.2837 108.396 59.858C108.572 58.7808 108.958 57.7489 109.534 56.8218C110.255 55.8021 111.122 54.894 112.107 54.1265C114.628 51.9909 117.966 49.8617 121.008 51.1418C121.446 51.3477 123.189 51.9845 123.073 52.4476Z" fill="black"/>
<path d="M147.938 79.1172C147.938 79.1172 144.008 77.5218 132.425 76.1387C133.068 80.346 135.641 82.1215 141.564 82.7648C147.488 83.4081 147.938 79.1172 147.938 79.1172Z" fill="#263238"/>
<path d="M147.411 78.9694C147.233 79.431 146.939 79.8387 146.557 80.1523C146.175 80.4658 145.718 80.6745 145.23 80.7578C141.81 80.3447 138.438 79.5948 135.165 78.519C134.61 78.3926 134.104 78.1115 133.703 77.7084C133.302 77.3052 133.024 76.7967 132.901 76.2417C137.81 76.7057 142.667 77.6187 147.411 78.9694Z" fill="white"/>
<path d="M144.999 80.41C142.08 79.2233 138.995 78.4963 135.853 78.2549C134.972 78.3508 134.134 78.6844 133.428 79.2199C134.715 81.3042 137.287 82.3399 141.513 82.816C143.103 83.0976 144.742 82.7985 146.131 81.9732C145.825 81.4037 145.445 80.8779 144.999 80.41Z" fill="white"/>
<path d="M155.495 106.874C154.999 111.539 153.255 115.983 150.446 119.74C150.241 120.016 150.028 120.293 149.803 120.563C143.552 128.482 132.315 130.939 122.97 126.777C120.016 125.497 117.179 123.96 114.493 122.184C109.193 118.62 104.621 113.667 102.466 107.852L118.899 105.736L130.135 104.289L137.815 105.073L155.495 106.874Z" fill="#FFB573"/>
<path d="M74.2437 117.41C73.6005 165.655 38.0011 207.467 34.3286 255.602H211.014C193.45 217.971 182.443 177.615 178.469 136.277L175.736 107.845H85.3126C85.3126 107.845 74.308 112.688 74.2437 117.41Z" fill="#407BFF"/>
<path opacity="0.6" d="M74.2437 117.41C73.6005 165.655 38.0011 207.467 34.3286 255.602H211.014C193.45 217.971 182.443 177.615 178.469 136.277L175.736 107.845H85.3126C85.3126 107.845 74.308 112.688 74.2437 117.41Z" fill="white"/>
<path opacity="0.2" d="M56.3123 255.538C56.3123 255.538 55.2832 205.859 71.7483 154.463C88.2135 103.066 67.542 169.875 70.7578 229.422C71.6711 246.591 76.1669 255.796 76.1669 255.796L56.3123 255.538Z" fill="white"/>
<path opacity="0.2" d="M194.799 255.795C194.799 255.795 173.215 205.73 169.336 139.648C169.336 139.648 164.049 198.127 182.29 255.602L194.799 255.795Z" fill="white"/>
<path d="M189.03 99.5991C189.117 99.556 189.208 99.5195 189.3 99.4897L189.197 99.5348L189.03 99.5991Z" fill="#407BFF"/>
<path d="M190.452 99.0718L189.995 99.239L189.622 99.3741H189.564L189.3 99.4706C189.667 99.342 190.053 99.2069 190.452 99.0718Z" fill="#407BFF"/>
<path d="M236.58 101.631C236.58 119.282 204.91 130.392 190.779 134.438C177.376 138.941 169.336 139.616 169.336 139.616C168.841 134.952 158.73 107.581 158.73 107.581C158.73 107.581 164.776 105.008 169.111 105.394H169.22C174.294 105.795 179.369 104.632 183.762 102.062C185.36 101.14 187.024 100.338 188.741 99.6629L189.03 99.5536L189.197 99.4892L189.564 99.3477H189.622L189.995 99.2126L190.451 99.0454L190.985 98.8717L191.146 98.8203L191.313 98.7688L191.435 98.7366H191.481C192.73 98.3747 193.999 98.0827 195.282 97.8618C199.043 97.1282 202.939 97.5776 206.434 99.1483C207.098 99.4739 207.833 99.6285 208.572 99.5981C209.311 99.5678 210.031 99.3535 210.666 98.9746C211.309 98.563 211.586 98.1191 210.969 97.7717L180.907 63.3829L190.072 58.3462C190.072 58.3462 236.58 82.9252 236.58 101.631Z" fill="#407BFF"/>
<path d="M236.58 101.631C236.58 119.282 204.91 130.392 190.779 134.438C177.376 138.941 169.336 139.616 169.336 139.616C168.841 134.952 158.73 107.581 158.73 107.581C158.73 107.581 164.776 105.008 169.111 105.394H169.22C174.294 105.795 179.369 104.632 183.762 102.062C185.36 101.14 187.024 100.338 188.741 99.6629L189.03 99.5536L189.197 99.4892L189.564 99.3477H189.622L189.995 99.2126L190.451 99.0454L190.985 98.8717L191.146 98.8203L191.313 98.7688L191.435 98.7366H191.481C192.73 98.3747 193.999 98.0827 195.282 97.8618C199.043 97.1282 202.939 97.5776 206.434 99.1483C207.098 99.4739 207.833 99.6285 208.572 99.5981C209.311 99.5678 210.031 99.3535 210.666 98.9746C211.309 98.563 211.586 98.1191 210.969 97.7717L180.907 63.3829L190.072 58.3462C190.072 58.3462 236.58 82.9252 236.58 101.631Z" fill="#407BFF"/>
<g opacity="0.3">
<path d="M236.58 101.631C236.58 119.282 204.91 130.391 190.78 134.437C177.376 138.94 169.336 139.615 169.336 139.615C168.841 134.952 158.73 107.581 158.73 107.581C158.73 107.581 164.776 105.008 169.111 105.394H169.221C174.294 105.795 179.369 104.632 183.763 102.062C185.36 101.139 187.024 100.337 188.741 99.6624L189.03 99.5531L189.197 99.4888L189.564 99.3472H189.622L189.995 99.2122L190.452 99.0449L190.985 98.8712L191.146 98.8198L191.313 98.7683L191.436 98.7361H191.481C192.73 98.3742 193.999 98.0822 195.282 97.8613C199.043 97.1277 202.939 97.5771 206.434 99.1478C207.098 99.4734 207.833 99.628 208.572 99.5977C209.311 99.5673 210.031 99.353 210.666 98.9742C211.31 98.5625 211.586 98.1186 210.969 97.7712L180.907 63.3824L190.072 58.3457C190.072 58.3457 236.58 82.9248 236.58 101.631Z" fill="white"/>
</g>
<path d="M183.383 64.2775L170.571 59.2022L162.853 48.91L173.941 46.4463L184.425 51.8819L190.715 58.7262C191.007 59.044 191.213 59.43 191.317 59.8487C191.42 60.2674 191.416 60.7054 191.306 61.1223C191.196 61.5393 190.983 61.9219 190.686 62.2349C190.39 62.5479 190.019 62.7814 189.609 62.9138L185.107 64.3483C184.541 64.5238 183.932 64.4988 183.383 64.2775Z" fill="#407BFF"/>
<path opacity="0.7" d="M183.383 64.2775L170.571 59.2022L162.853 48.91L173.941 46.4463L184.425 51.8819L190.715 58.7262C191.007 59.044 191.213 59.43 191.317 59.8487C191.42 60.2674 191.416 60.7054 191.306 61.1223C191.196 61.5393 190.983 61.9219 190.686 62.2349C190.39 62.5479 190.019 62.7814 189.609 62.9138L185.107 64.3483C184.541 64.5238 183.932 64.4988 183.383 64.2775Z" fill="white"/>
<path opacity="0.2" d="M174.996 125.58L176.283 138.593C176.283 138.593 195.25 134.193 205.971 129.285L197.359 129.754C190.234 130.243 183.103 128.901 176.643 125.856L174.996 125.58Z" fill="black"/>
<path d="M177.267 138.291C177.08 179.711 169.471 183.622 169.832 219.272C169.832 219.272 98.1246 219.561 95.6935 219.625C89.9049 171.651 84.0071 169.451 85.5635 132.611C84.811 120.512 91.6736 109.872 98.5748 108.489L130.148 104.289L160.518 107.505C168.236 108.611 175.215 114.697 177.267 138.291Z" fill="#407BFF"/>
<path opacity="0.3" d="M177.267 138.291C177.08 179.711 169.471 183.622 169.832 219.272C169.832 219.272 98.1246 219.561 95.6935 219.625C89.9049 171.651 84.0071 169.451 85.5635 132.611C84.811 120.512 91.6736 109.872 98.5748 108.489L130.148 104.289L160.518 107.505C168.236 108.611 175.215 114.697 177.267 138.291Z" fill="white"/>
<path d="M125.479 57.4009C123.549 53.1553 120.976 51.1033 122.475 51.3349C126.501 51.9782 128.965 48.4338 131.923 50.4279C133.364 52.0747 131.704 55.1366 131.634 54.9693C133.113 55.6705 134.959 55.1173 136.174 54.0366C137.39 52.9559 137.815 51.0647 138.413 49.5338C138.861 51.18 138.82 52.921 138.297 54.5448C139.358 55.3875 141.545 53.805 142.542 52.8852C143.538 51.8298 144.283 50.5633 144.722 49.18C145.102 50.6595 145.397 52.1647 144.336 53.9465C145.841 54.0302 147.816 53.567 148.806 52.4413C149.324 51.8549 149.707 51.1625 149.929 50.4125C150.152 49.6625 150.207 48.8731 150.093 48.0993C150.434 48.8583 150.485 51.9589 149.81 52.4799C152.382 51.6372 154.768 48.4209 154.633 45.7385C154.51 44.3927 154.063 43.0967 153.332 41.9601C152.601 40.8235 151.607 39.88 150.434 39.2094C149.282 38.5211 148.002 38.0708 146.793 37.479C144.934 36.5656 133.126 27.7529 115.786 37.8007C105.026 44.0403 107.129 56.4553 108.409 57.8061C109.997 59.4722 112.499 60.0318 114.808 59.8002C117.117 59.5687 125.98 58.5266 125.479 57.4009Z" fill="#407BFF"/>
<path opacity="0.3" d="M125.479 57.4009C123.549 53.1553 120.976 51.1033 122.475 51.3349C126.501 51.9782 128.965 48.4338 131.923 50.4279C133.364 52.0747 131.704 55.1366 131.634 54.9693C133.113 55.6705 134.959 55.1173 136.174 54.0366C137.39 52.9559 137.815 51.0647 138.413 49.5338C138.861 51.18 138.82 52.921 138.297 54.5448C139.358 55.3875 141.545 53.805 142.542 52.8852C143.538 51.8298 144.283 50.5633 144.722 49.18C145.102 50.6595 145.397 52.1647 144.336 53.9465C145.841 54.0302 147.816 53.567 148.806 52.4413C149.324 51.8549 149.707 51.1625 149.929 50.4125C150.152 49.6625 150.207 48.8731 150.093 48.0993C150.434 48.8583 150.485 51.9589 149.81 52.4799C152.382 51.6372 154.768 48.4209 154.633 45.7385C154.51 44.3927 154.063 43.0967 153.332 41.9601C152.601 40.8235 151.607 39.88 150.434 39.2094C149.282 38.5211 148.002 38.0708 146.793 37.479C144.934 36.5656 133.126 27.7529 115.786 37.8007C105.026 44.0403 107.129 56.4553 108.409 57.8061C109.997 59.4722 112.499 60.0318 114.808 59.8002C117.117 59.5687 125.98 58.5266 125.479 57.4009Z" fill="black"/>
<path d="M147.938 79.1172C147.938 79.1172 144.008 77.5218 132.425 76.1387C133.068 80.346 135.641 82.1215 141.564 82.7648C147.488 83.4081 147.938 79.1172 147.938 79.1172Z" fill="#407BFF"/>
<path opacity="0.3" d="M147.938 79.1172C147.938 79.1172 144.008 77.5218 132.425 76.1387C133.068 80.346 135.641 82.1215 141.564 82.7648C147.488 83.4081 147.938 79.1172 147.938 79.1172Z" fill="black"/>
<path d="M147.411 78.9694C147.233 79.431 146.939 79.8387 146.557 80.1523C146.175 80.4658 145.718 80.6745 145.23 80.7578C141.81 80.3447 138.438 79.5948 135.165 78.519C134.61 78.3926 134.104 78.1115 133.703 77.7084C133.302 77.3052 133.024 76.7967 132.901 76.2417C137.81 76.7057 142.667 77.6187 147.411 78.9694Z" fill="white"/>
<path d="M144.999 80.41C142.08 79.2233 138.995 78.4963 135.853 78.2549C134.972 78.3508 134.134 78.6844 133.428 79.2199C134.715 81.3042 137.287 82.3399 141.513 82.816C143.103 83.0976 144.742 82.7985 146.131 81.9732C145.825 81.4037 145.445 80.8779 144.999 80.41Z" fill="white"/>
<path d="M91.9824 201.357C91.9824 201.357 107.148 193.316 107.065 194.197C106.981 195.079 107.38 212.093 107.38 212.093L90.844 211.713L91.9824 201.357Z" fill="#407BFF"/>
<path d="M107.052 194.197C107.052 194.197 121.015 194.653 120.938 196.204C120.861 197.754 119.356 210.767 119.356 210.767L107.367 212.099L107.052 194.197Z" fill="#407BFF"/>
<g opacity="0.7">
<path d="M120.925 196.205C120.848 197.762 119.349 210.762 119.349 210.762L107.361 212.093L90.8247 211.714L91.9631 201.357C91.9631 201.357 107.129 193.317 107.045 194.198C107.052 194.198 121.015 194.687 120.925 196.205Z" fill="white"/>
</g>
<path d="M155.495 106.874C154.999 111.539 153.255 115.983 150.446 119.74C150.241 120.016 150.028 120.293 149.803 120.563C143.552 128.482 132.315 130.939 122.97 126.777C120.016 125.497 117.179 123.96 114.493 122.184C109.193 118.62 104.621 113.667 102.466 107.852L118.899 105.736L130.135 104.289L137.815 105.073L155.495 106.874Z" fill="#407BFF"/>
<path opacity="0.7" d="M155.495 106.874C154.999 111.539 153.255 115.983 150.446 119.74C150.241 120.016 150.028 120.293 149.803 120.563C143.552 128.482 132.315 130.939 122.97 126.777C120.016 125.497 117.179 123.96 114.493 122.184C109.193 118.62 104.621 113.667 102.466 107.852L118.899 105.736L130.135 104.289L137.815 105.073L155.495 106.874Z" fill="white"/>
<path opacity="0.2" d="M85.6665 148.647C85.6896 155.881 86.3352 163.099 87.596 170.222L92.9665 136.695L85.6665 148.647Z" fill="black"/>
<path d="M56.5567 172.905L92.4777 198.288L90.8312 213.218C90.8312 213.218 36.9208 200.823 28.7589 184.001C24.945 176.154 29.2413 166.556 35.8788 157.679C35.8819 157.669 35.8819 157.657 35.8788 157.647C43.7705 144.737 50.9419 137.062 56.3509 132.527C61.6558 128.21 66.2636 123.1 70.0118 117.379C79.3249 102.757 100.241 108.682 100.241 108.682C95.4749 119.836 95.4234 141.051 95.4234 141.051C95.4234 141.051 90.7476 144.576 85.6408 148.648C85.5894 152.089 83.4991 156.302 79.46 161.063C74.1538 167.341 58.3704 170.917 56.5567 172.905Z" fill="#407BFF"/>
<path opacity="0.3" d="M56.5567 172.905L92.4777 198.288L90.8312 213.218C90.8312 213.218 36.9208 200.823 28.7589 184.001C24.945 176.154 29.2413 166.556 35.8788 157.679C35.8819 157.669 35.8819 157.657 35.8788 157.647C43.7705 144.737 50.9419 137.062 56.3509 132.527C61.6558 128.21 66.2636 123.1 70.0118 117.379C79.3249 102.757 100.241 108.682 100.241 108.682C95.4749 119.836 95.4234 141.051 95.4234 141.051C95.4234 141.051 90.7476 144.576 85.6408 148.648C85.5894 152.089 83.4991 156.302 79.46 161.063C74.1538 167.341 58.3704 170.917 56.5567 172.905Z" fill="white"/>
<path d="M83.692 104.359C95.0482 113.805 107.951 121.217 121.832 126.268C121.832 121.913 120.443 113.113 117.973 107.659C117.272 106.128 116.384 104.59 114.95 103.709C113.516 102.828 111.413 102.834 110.345 104.14C106.267 101.258 99.559 101.123 95.6035 104.14C92.542 103.079 88.1942 101.393 85.0041 101.966C81.8139 102.538 77.8777 106.79 78.3537 110C81.2962 108.591 84.4866 107.774 87.744 107.594C86.8692 106.559 87.7247 107.626 83.692 104.359Z" fill="#407BFF"/>
<path opacity="0.6" d="M83.692 104.359C95.0482 113.805 107.951 121.217 121.832 126.268C121.832 121.913 120.443 113.113 117.973 107.659C117.272 106.128 116.384 104.59 114.95 103.709C113.516 102.828 111.413 102.834 110.345 104.14C106.267 101.258 99.559 101.123 95.6035 104.14C92.542 103.079 88.1942 101.393 85.0041 101.966C81.8139 102.538 77.8777 106.79 78.3537 110C81.2962 108.591 84.4866 107.774 87.744 107.594C86.8692 106.559 87.7247 107.626 83.692 104.359Z" fill="white"/>
<path d="M166.223 105.459C164.379 104.625 162.378 104.193 160.354 104.193C158.33 104.193 156.329 104.625 154.485 105.459C151.964 103.613 148.086 103.221 145.481 104.99C145.071 104.5 144.564 104.1 143.992 103.817C143.419 103.533 142.794 103.372 142.156 103.343C140.87 103.298 140.046 104.186 139.165 105.105C141.017 106.038 141.963 108.116 142.619 110.084C144.293 115.07 145.007 120.329 144.722 125.581C153.598 121.245 161.129 113.97 166.223 105.459Z" fill="#407BFF"/>
<path opacity="0.6" d="M166.223 105.459C164.379 104.625 162.378 104.193 160.354 104.193C158.33 104.193 156.329 104.625 154.485 105.459C151.964 103.613 148.086 103.221 145.481 104.99C145.071 104.5 144.564 104.1 143.992 103.817C143.419 103.533 142.794 103.372 142.156 103.343C140.87 103.298 140.046 104.186 139.165 105.105C141.017 106.038 141.963 108.116 142.619 110.084C144.293 115.07 145.007 120.329 144.722 125.581C153.598 121.245 161.129 113.97 166.223 105.459Z" fill="white"/>
<path opacity="0.5" d="M164.487 155.588C164.487 165.359 150.582 182.824 133.428 182.824C116.275 182.824 102.37 165.359 102.37 155.588C102.37 145.817 116.275 137.892 133.428 137.892C150.582 137.892 164.487 145.798 164.487 155.588Z" fill="white"/>
<path d="M160.313 156.431C160.313 164.478 148.858 178.868 134.727 178.868C120.597 178.868 109.148 164.452 109.148 156.431C109.148 148.409 120.597 141.848 134.727 141.848C148.858 141.848 160.313 148.371 160.313 156.431Z" fill="#407BFF"/>
<path opacity="0.5" d="M160.313 156.431C160.313 164.478 148.858 178.868 134.727 178.868C120.597 178.868 109.148 164.452 109.148 156.431C109.148 148.409 120.597 141.848 134.727 141.848C148.858 141.848 160.313 148.371 160.313 156.431Z" fill="white"/>
<path d="M169.844 219.625H95.6935V231.726H169.844V219.625Z" fill="white"/>
<path d="M95.6935 231.725L88.5994 255.603H172.244L169.851 231.725H95.6935Z" fill="#407BFF"/>
<path opacity="0.2" d="M95.6935 231.725L88.5994 255.603H172.244L169.851 231.725H95.6935Z" fill="white"/>
<path d="M150.652 218.853H128.482V232.111H150.652V218.853Z" fill="#263238"/>
<path opacity="0.7" d="M150.652 218.853H128.482V232.111H150.652V218.853Z" fill="white"/>
<path opacity="0.7" d="M137.763 218.853L131.235 232.111H136.071L142.805 218.853H137.763Z" fill="white"/>
<path opacity="0.7" d="M144.877 218.853L138.348 232.111H141.802L148.536 218.853H144.877Z" fill="white"/>
<path opacity="0.2" d="M158.1 61.9104C157.83 63.7308 156.409 66.1366 155.135 67.9764C155.342 71.6576 155.126 75.3505 154.492 78.9826C153.721 83.2604 151.559 87.1638 148.342 90.0868C145.125 93.0098 141.033 94.7889 136.702 95.1477C136.622 96.6047 136.622 98.065 136.702 99.5219C136.792 101.407 137.165 103.267 137.808 105.041L155.476 106.842C154.98 111.507 153.235 115.951 150.427 119.708C150.221 119.984 150.009 120.261 149.784 120.531C143.532 128.449 132.296 130.907 122.951 126.745C120.003 125.464 117.173 123.927 114.493 122.152C109.194 118.588 104.621 113.635 102.466 107.82L118.899 105.704C119.748 103.298 119.941 99.5927 120.327 96.698C120.597 94.7232 120.185 90.4519 119.375 86.4444C118.758 86.138 118.17 85.7763 117.619 85.3637C117.619 87.2485 116.333 90.5098 116.333 90.5098C110.338 88.535 105.399 76.5446 104.756 72.5692C101.418 78.7639 101.713 75.2002 101.456 72.5692C101.083 68.7804 100.987 64.8501 102.279 61.28C103.202 58.625 105.022 56.3751 107.425 54.9181C106.782 50.5568 107.669 42.4453 115.709 37.7816C133.074 27.7339 144.857 36.5466 146.716 37.46C147.925 38.0518 149.199 38.5021 150.356 39.1904C151.53 39.8609 152.524 40.8045 153.255 41.941C153.986 43.0776 154.432 44.3737 154.556 45.7195C154.64 47.4692 153.662 49.4375 152.26 50.8334C158.229 51.5989 158.589 58.6233 158.1 61.9104Z" fill="white"/>
<path opacity="0.2" d="M145.758 49.9068L145.539 49.5401C145.62 49.0632 145.62 48.5761 145.539 48.0991C145.708 48.6862 145.782 49.2965 145.758 49.9068Z" fill="white"/>
<path d="M97.2181 236.382C95.4095 236.971 93.5639 237.44 91.6933 237.784C91.4039 237.836 91.1209 237.887 90.8443 237.926C89.9375 238.061 89.0885 238.145 88.2716 238.183C75.8263 238.827 75.5047 228.431 75.196 223.137C74.8896 216.058 75.0658 208.965 75.7234 201.91C76.5853 192.087 78.2189 181.885 80.5922 174.249C84.0267 163.237 89.5966 162.027 94.3239 161.944C95.2372 161.944 96.1312 161.944 96.9673 161.944C96.9673 161.944 96.3627 165.064 96.0733 168.074L94.1952 181.415L91.584 199.928L91.1788 202.817V202.978L89.7638 213L89.4358 215.309C89.2879 216.846 89.1785 219.014 90.8572 220.249C91.0938 220.432 91.3532 220.584 91.629 220.699C92.7224 221.188 94.3367 221.388 96.6843 221.111L96.9223 227.685L96.9673 228.869L97.0445 230.914L97.1731 234.632L97.2181 236.382Z" fill="#FFB573"/>
<path d="M68.9249 198.16C72.488 202.231 75.3566 201.736 80.2832 202.508C85.2099 203.28 89.4548 203.01 94.433 202.553C95.4427 188.704 97.1471 174.893 97.0056 161.056C92.9665 161.358 88.6444 161.191 85.3321 163.198C80.92 165.881 80.6241 172.77 77.6527 177.627C74.141 183.364 69.6388 188.067 65.1816 192.711C66.8024 195.541 66.8989 195.812 68.9249 198.16Z" fill="#407BFF"/>
<g opacity="0.6">
<path d="M68.9249 198.159C72.488 202.231 75.3566 201.736 80.2832 202.507C85.2099 203.279 89.4548 203.009 94.433 202.553C95.4427 188.703 97.1471 174.892 97.0056 161.056C92.9665 161.358 88.6444 161.191 85.3321 163.198C80.92 165.88 80.6241 172.769 77.6527 177.626C74.141 183.364 69.6388 188.066 65.1816 192.711C66.8024 195.541 66.8989 195.811 68.9249 198.159Z" fill="black"/>
</g>
<path opacity="0.2" d="M94.1951 181.409L87.326 202.997H95.996L94.1951 181.409Z" fill="black"/>
<path d="M160.557 206.02C159.766 209.558 158.821 213.025 157.856 217.444C157.65 218.39 157.438 219.374 157.213 220.429C156.923 221.896 156.634 223.452 156.357 225.151C156.049 227.08 155.746 229.139 155.457 231.429C155.2 233.41 154.962 235.546 154.737 237.861C154.64 238.871 154.537 239.913 154.447 241.007C154.267 243.136 154.093 245.407 153.939 247.832C153.785 250.257 153.643 252.946 153.515 255.763C151.418 255.712 89.4485 255.763 89.4485 255.763C89.7958 251.64 90.0917 247.761 90.3747 244.017C90.5226 241.94 90.6705 239.907 90.7927 237.9V237.855C90.8377 237.212 90.8763 236.633 90.9085 236.028C91.005 234.497 91.0886 232.985 91.1657 231.48C91.3523 227.878 91.4938 224.314 91.5838 220.68C91.5838 220.525 91.5838 220.371 91.5838 220.217C91.6353 217.978 91.6674 215.714 91.6803 213.385C91.6803 210.04 91.6803 206.586 91.6095 202.958C91.6095 202.894 91.6095 202.829 91.6095 202.765C91.6095 201.826 91.5774 200.874 91.5517 199.909C91.4745 196.95 91.3716 193.862 91.2301 190.614C91.0564 186.561 90.8313 182.251 90.5483 177.658C90.2139 172.223 90.5998 164.999 94.2851 161.931C94.6499 161.624 95.0493 161.36 95.475 161.146C96.1074 160.825 96.787 160.608 97.4881 160.503L116.944 157.473L123.729 156.418L133.724 158.348L155.656 162.658C155.919 162.708 156.179 162.773 156.435 162.851C157.852 163.265 159.095 164.133 159.972 165.321C162.236 168.35 162.705 173.683 162.255 180.862C162.815 193.27 161.947 199.755 160.557 206.02Z" fill="#407BFF"/>
<path opacity="0.6" d="M160.557 206.02C159.766 209.558 158.821 213.025 157.856 217.444C157.65 218.39 157.438 219.374 157.213 220.429C156.923 221.896 156.634 223.452 156.357 225.151C156.049 227.08 155.746 229.139 155.457 231.429C155.2 233.41 154.962 235.546 154.737 237.861C154.64 238.871 154.537 239.913 154.447 241.007C154.267 243.136 154.093 245.407 153.939 247.832C153.785 250.257 153.643 252.946 153.515 255.763C151.418 255.712 89.4485 255.763 89.4485 255.763C89.7958 251.64 90.0917 247.761 90.3747 244.017C90.5226 241.94 90.6705 239.907 90.7927 237.9V237.855C90.8377 237.212 90.8763 236.633 90.9085 236.028C91.005 234.497 91.0886 232.985 91.1657 231.48C91.3523 227.878 91.4938 224.314 91.5838 220.68C91.5838 220.525 91.5838 220.371 91.5838 220.217C91.6353 217.978 91.6674 215.714 91.6803 213.385C91.6803 210.04 91.6803 206.586 91.6095 202.958C91.6095 202.894 91.6095 202.829 91.6095 202.765C91.6095 201.826 91.5774 200.874 91.5517 199.909C91.4745 196.95 91.3716 193.862 91.2301 190.614C91.0564 186.561 90.8313 182.251 90.5483 177.658C90.2139 172.223 90.5998 164.999 94.2851 161.931C94.6499 161.624 95.0493 161.36 95.475 161.146C96.1074 160.825 96.787 160.608 97.4881 160.503L116.944 157.473L123.729 156.418L133.724 158.348L155.656 162.658C155.919 162.708 156.179 162.773 156.435 162.851C157.852 163.265 159.095 164.133 159.972 165.321C162.236 168.35 162.705 173.683 162.255 180.862C162.815 193.27 161.947 199.755 160.557 206.02Z" fill="black"/>
<path d="M134.631 159.505C138.529 162.284 136.876 166.652 133.699 170.222C127.08 177.652 120.192 179.961 120.192 179.961C120.089 179.916 103 167.565 115.047 159.84C117.041 158.553 117.819 155.524 118.038 152.352C118.17 149.93 118.073 147.5 117.748 145.096C117.69 144.492 117.594 143.9 117.491 143.34C117.388 142.781 117.272 142.214 117.137 141.693L135.319 134.219C133.326 137.216 131.808 146.827 132.232 149.921C132.695 153.382 132.83 158.225 134.631 159.505Z" fill="#FFB573"/>
<path opacity="0.2" d="M118.095 152.353C118.228 149.931 118.131 147.501 117.806 145.097C117.748 144.492 117.651 143.9 117.549 143.34L131.563 140.651C128.643 143.591 124.501 149.548 118.095 152.353Z" fill="black"/>
<path d="M99.1024 120.608C99.5591 123.618 103.823 128.514 103.605 128.218C103.434 127.901 103.373 127.537 103.431 127.182C103.528 125.82 103.875 124.488 104.454 123.252C104.807 124.937 105.36 128.398 107.078 128.443C107.759 127.201 108.602 126.069 108.486 124.654C108.885 126.101 109.245 127.555 109.638 129.002C111.336 127.902 112.685 126.34 113.528 124.5C114.371 122.661 114.672 120.619 114.397 118.614C114.246 117.681 113.914 116.787 113.419 115.983C112.805 115.095 112.061 114.304 111.213 113.635C109.039 111.789 106.267 110.277 103.495 111.062C98.2599 112.554 98.6458 117.597 99.1024 120.608Z" fill="#263238"/>
<path d="M102.743 134.598C104.994 146.865 119.678 153.336 129.37 144.549C134.966 139.487 135.86 133.447 136.876 124.029C137.037 122.601 137.197 121.103 137.384 119.527C137.681 117.044 137.424 114.526 136.631 112.155C136.305 111.164 135.874 110.211 135.345 109.312C133.451 105.894 130.418 103.249 126.775 101.838C123.131 100.427 119.108 100.34 115.407 101.592C103.302 105.684 100.704 123.56 102.743 134.598Z" fill="#FFB573"/>
<path d="M114.654 117.199C114.564 117.166 114.486 117.108 114.429 117.031C114.339 116.91 114.301 116.758 114.323 116.609C114.345 116.459 114.424 116.325 114.545 116.234C115.267 115.681 116.113 115.313 117.01 115.16C117.906 115.008 118.826 115.076 119.69 115.359C119.759 115.387 119.822 115.429 119.875 115.481C119.928 115.534 119.969 115.596 119.998 115.665C120.027 115.733 120.042 115.807 120.042 115.882C120.042 115.956 120.027 116.03 119.999 116.099C119.94 116.24 119.829 116.353 119.688 116.413C119.548 116.473 119.389 116.476 119.247 116.42C118.561 116.195 117.831 116.142 117.121 116.264C116.41 116.386 115.74 116.681 115.169 117.122C115.097 117.178 115.012 117.214 114.922 117.228C114.832 117.242 114.739 117.231 114.654 117.199Z" fill="#263238"/>
<path d="M108.441 118.06C108.38 117.988 108.303 117.931 108.216 117.894C108.129 117.857 108.034 117.841 107.94 117.848C107.204 117.941 106.456 117.861 105.756 117.615C105.057 117.37 104.423 116.965 103.907 116.433C103.807 116.315 103.665 116.241 103.511 116.226C103.357 116.212 103.204 116.258 103.084 116.355C102.969 116.454 102.896 116.592 102.879 116.743C102.862 116.893 102.903 117.044 102.994 117.166C103.63 117.848 104.42 118.368 105.299 118.683C106.177 118.997 107.118 119.097 108.042 118.974C108.12 118.968 108.196 118.947 108.266 118.911C108.335 118.875 108.397 118.826 108.447 118.766C108.496 118.706 108.534 118.636 108.556 118.561C108.578 118.486 108.585 118.408 108.576 118.33C108.553 118.231 108.507 118.138 108.441 118.06Z" fill="#263238"/>
<path d="M110.635 131.035C108.871 131.052 107.155 130.464 105.772 129.369C107.657 127.497 109.766 125.393 111.059 123.071L110.635 131.035Z" fill="#ED893E"/>
<path d="M106.249 123.772C105.767 123.734 105.298 123.601 104.868 123.38C104.439 123.159 104.057 122.855 103.746 122.485C103.717 122.455 103.694 122.418 103.679 122.379C103.664 122.339 103.657 122.297 103.658 122.254C103.659 122.212 103.669 122.17 103.686 122.132C103.703 122.093 103.728 122.058 103.759 122.029C103.79 122 103.826 121.977 103.866 121.962C103.905 121.947 103.948 121.939 103.99 121.941C104.032 121.942 104.074 121.951 104.113 121.969C104.152 121.986 104.187 122.011 104.216 122.042C104.93 122.794 106.049 123.541 107.31 122.801C107.384 122.758 107.471 122.745 107.554 122.765C107.637 122.786 107.709 122.838 107.754 122.91C107.797 122.985 107.808 123.073 107.787 123.156C107.765 123.239 107.712 123.31 107.638 123.354C107.221 123.616 106.741 123.76 106.249 123.772Z" fill="#263238"/>
<path d="M117.439 134.007C116.533 134.702 115.498 135.209 114.393 135.497C113.289 135.786 112.137 135.85 111.008 135.686C110.931 135.678 110.86 135.641 110.81 135.582C110.76 135.524 110.734 135.448 110.737 135.371C110.739 135.335 110.748 135.299 110.763 135.266C110.779 135.233 110.801 135.204 110.827 135.179C110.854 135.155 110.886 135.136 110.92 135.123C110.954 135.111 110.991 135.106 111.027 135.107C112.259 135.281 113.514 135.17 114.696 134.782C115.878 134.394 116.955 133.739 117.844 132.869C117.897 132.818 117.967 132.79 118.041 132.79C118.114 132.79 118.184 132.818 118.237 132.869C118.287 132.925 118.315 132.999 118.315 133.074C118.315 133.15 118.287 133.224 118.237 133.28C117.997 133.542 117.731 133.784 117.439 134.007Z" fill="#263238"/>
<path d="M130.476 141.938C131.961 141.66 133.362 141.047 134.573 140.143C134.573 141.771 135.667 144.563 135.667 144.563C140.844 142.858 145.108 132.495 145.681 129.06C148.562 134.412 148.311 131.337 148.536 129.06C148.858 125.786 148.935 122.396 147.823 119.308C146.71 116.221 144.157 113.461 140.915 112.927C140.311 112.87 139.704 112.976 139.155 113.234C138.606 113.492 138.137 113.893 137.796 114.394C137.241 115.389 136.879 116.48 136.728 117.61C135.223 125.722 135.287 135.21 130.476 141.938Z" fill="#263238"/>
<path d="M137.821 123.283C133.859 123.367 131.435 128.365 131.017 131.787C130.521 135.589 133.081 138.721 136.754 137.036C138.123 136.4 139.352 135.498 140.368 134.381C141.384 133.264 142.167 131.956 142.671 130.533C143.893 127.014 141.783 123.212 137.821 123.283Z" fill="#FFB573"/>
<path opacity="0.2" d="M148.813 186.407C148.813 186.407 144.002 208.181 147.34 221.323C150.678 234.465 157.341 241.09 157.341 241.09L158.531 186.413L148.813 186.407Z" fill="black"/>
<path opacity="0.2" d="M157.342 241.09C156.396 241.316 155.408 241.294 154.473 241.026C154.293 243.155 154.119 245.426 153.965 247.851C150.138 249.903 133.075 243.875 118.108 237.861C114.809 236.536 111.612 235.204 108.686 233.963C107.644 233.532 106.647 233.101 105.689 232.676C103.701 231.827 101.887 231.036 100.305 230.341C99.0189 229.781 97.887 229.28 96.9479 228.855C94.9863 227.987 93.8607 227.472 93.8607 227.472L96.9029 227.672L120.925 229.228L127.132 229.634L128.38 229.704L136.065 230.2L141.314 230.534H141.584L146.678 230.862L150.826 231.126L155.457 231.422L157.316 231.544C157.316 231.544 157.419 232.831 157.451 234.985V235.063C157.496 236.664 157.477 238.716 157.342 241.09Z" fill="black"/>
<path d="M167.233 206.103C166.282 216.164 164.879 226.102 163.722 232.625C162.918 237.166 160.351 240.344 157.341 241.103C156.396 241.329 155.408 241.307 154.473 241.039C154.331 241 154.196 240.955 154.055 240.904L131.029 234.967L130.83 234.909L128.367 234.265L128.405 229.698V229.332V227.524L128.457 221.818L131.57 221.985L146.781 222.796C147.088 222.882 147.412 222.896 147.726 222.835C149.045 222.584 150.138 221.04 150.299 219.007L150.595 214.594L151.238 204.862L152.479 186.394L153.618 169.296C153.744 167.451 154.034 165.621 154.486 163.828C156.42 163.91 158.31 164.441 160.004 165.378C163.587 167.308 167.478 171.406 168.108 179.807C168.635 186.78 168.147 196.493 167.233 206.103Z" fill="#FFB573"/>
<path d="M139.609 236.62L105.817 230.097C104.896 229.807 103.919 229.743 102.968 229.911L93.449 231.544C92.4268 231.722 91.3763 231.634 90.3977 231.289C89.4192 230.945 88.5454 230.355 87.8599 229.576L83.3577 224.469C82.8148 223.855 82.4013 223.138 82.1419 222.361C81.8825 221.584 81.7825 220.762 81.848 219.945C81.9134 219.129 82.1429 218.333 82.5228 217.607C82.9027 216.881 83.4251 216.24 84.0587 215.72L85.6731 214.395C86.7217 213.533 88.0285 213.048 89.3853 213.015C90.7421 212.982 92.0707 213.405 93.1596 214.215C94.2592 215.033 95.6036 215.455 96.9736 215.411H97.5331C98.8046 215.372 100.056 215.733 101.112 216.442C102.168 217.152 102.975 218.175 103.418 219.368L103.946 220.776L131.492 221.831L139.609 236.62Z" fill="#FFB573"/>
<path opacity="0.1" d="M99.1024 221.581C100.717 221.266 102.318 221.008 103.939 220.744L103.418 219.355C102.974 218.162 102.168 217.139 101.112 216.429C100.056 215.72 98.8045 215.359 97.533 215.399H96.9735C95.6035 215.442 94.2591 215.02 93.1595 214.202C92.0706 213.392 90.742 212.969 89.3852 213.002C88.0284 213.034 86.7216 213.52 85.673 214.382L84.0586 215.707C83.0141 216.565 82.2844 217.746 81.984 219.065C81.6836 220.383 81.8297 221.764 82.3993 222.99C85.48 223.279 96.5361 222.083 99.1024 221.581Z" fill="black"/>
<path opacity="0.2" d="M150.202 229.692C149.069 230.173 147.901 230.571 146.71 230.882C144.465 231.525 141.372 232.336 137.763 233.237C135.615 233.77 133.261 234.33 130.843 234.909C126.804 235.874 122.482 236.884 118.147 237.868C106.833 240.441 95.6359 242.905 90.439 244.043C90.587 241.966 90.7349 239.933 90.8571 237.926C89.9502 238.061 89.1012 238.145 88.2844 238.183V238.029L88.4838 236.607L90.9278 236.054L97.1473 234.639L105.682 232.709L111.934 231.287L120.938 229.235L128.412 227.537L133.924 226.283L138.066 225.344C138.066 225.344 145.61 226.129 149.238 227.396C151.154 228.039 151.958 228.817 150.202 229.692Z" fill="black"/>
<path d="M79.2222 220.48L131.081 219.522C132.041 219.44 132.969 219.134 133.789 218.628L142.008 213.539C142.889 212.992 143.896 212.68 144.932 212.633C145.968 212.585 146.998 212.805 147.925 213.269L154.01 216.312C154.741 216.679 155.39 217.188 155.92 217.811C156.45 218.433 156.85 219.156 157.095 219.936C157.34 220.716 157.427 221.537 157.349 222.351C157.27 223.165 157.03 223.955 156.64 224.674L155.656 226.527C155.006 227.718 153.976 228.658 152.73 229.196C151.484 229.735 150.094 229.841 148.781 229.499C147.456 229.151 139.133 230.509 137.345 228.585L136.316 227.492L95.057 237.205C92.1321 237.895 89.1248 238.17 86.1234 238.022L79.2222 220.48Z" fill="#FFB573"/>
<path d="M180.997 203.164C179.586 204.179 177.959 204.855 176.244 205.138C165.066 206.991 157.985 206.052 148.974 204.495C147.385 189.539 147.784 177.96 150.653 169.598C151.611 166.819 154.351 162.773 157.284 162.895C169.742 163.416 171.864 175.947 173.286 181.73C175.051 189.139 177.638 196.328 180.997 203.164Z" fill="#407BFF"/>
<path opacity="0.6" d="M180.997 203.164C179.586 204.179 177.959 204.855 176.244 205.138C165.066 206.991 157.985 206.052 148.974 204.495C147.385 189.539 147.784 177.96 150.653 169.598C151.611 166.819 154.351 162.773 157.284 162.895C169.742 163.416 171.864 175.947 173.286 181.73C175.051 189.139 177.638 196.328 180.997 203.164Z" fill="black"/>
<path d="M127.749 117.353C129.286 113.39 131.538 111.403 130.206 111.673C126.604 112.413 124.238 109.293 121.658 111.242C120.43 112.805 122.051 115.539 122.109 115.384C120.822 116.086 119.118 115.661 117.98 114.741C116.841 113.821 116.378 112.091 115.774 110.74C115.443 112.266 115.552 113.854 116.089 115.32C115.169 116.137 113.137 114.773 112.23 113.976C111.292 113.039 110.576 111.905 110.133 110.656C109.863 112.02 109.651 113.416 110.686 114.998C109.329 115.134 107.535 114.793 106.595 113.802C106.104 113.285 105.729 112.668 105.499 111.993C105.268 111.318 105.185 110.601 105.258 109.891C104.981 110.599 105.065 113.461 105.695 113.886C103.328 113.242 101.058 110.373 101.064 107.916C101.117 106.685 101.464 105.484 102.076 104.414C102.688 103.344 103.548 102.436 104.582 101.767C105.586 101.123 106.718 100.622 107.798 100.03C109.432 99.1227 119.703 90.5609 135.737 99.0455C145.694 104.307 144.324 115.77 143.224 117.057C141.86 118.646 139.629 119.263 137.538 119.147C135.448 119.032 127.357 118.401 127.749 117.353Z" fill="#263238"/>
<path d="M129.885 111.64C128.844 112.759 128.068 114.096 127.611 115.554C127.155 117.012 127.031 118.554 127.248 120.067C127.704 123.077 131.975 127.979 131.75 127.676C131.579 127.36 131.518 126.996 131.576 126.641C131.673 125.279 132.02 123.947 132.599 122.71C132.959 124.396 133.506 127.856 135.229 127.901C135.911 126.66 136.747 125.528 136.632 124.113C137.03 125.56 137.39 127.014 137.789 128.461C139.486 127.359 140.835 125.798 141.677 123.958C142.52 122.119 142.822 120.077 142.549 118.072C142.395 117.14 142.061 116.246 141.565 115.441C140.944 114.56 140.194 113.777 139.339 113.119C137.165 111.273 134.284 109.433 131.621 110.546C131.287 110.694 129.782 111.241 129.885 111.64Z" fill="#263238"/>
<path d="M119.17 121.418C119.17 122.422 118.636 123.226 117.993 123.245C117.349 123.264 116.822 122.467 116.77 121.437C116.719 120.408 117.304 119.63 117.954 119.617C118.604 119.604 119.176 120.427 119.17 121.418Z" fill="#263238"/>
<path d="M20.1474 214.246C20.4591 212.795 20.674 211.325 20.7906 209.846C21.4337 204.874 24.3537 201.027 28.0648 200.274L30.7468 199.721C30.7468 199.721 26.5405 199.721 24.7846 198.492C21.0671 195.919 20.2117 188.2 20.2117 188.2C20.2117 188.2 19.1698 195.919 15.4458 198.492C13.69 199.721 9.48364 199.721 9.48364 199.721L12.1657 200.274C15.8832 201.027 18.8289 204.874 19.4463 209.846C19.584 211.326 19.8181 212.796 20.1474 214.246Z" fill="#407BFF"/>
<g opacity="0.7">
<path d="M20.1474 214.246C20.4591 212.795 20.674 211.325 20.7906 209.846C21.4337 204.874 24.3537 201.027 28.0648 200.274L30.7468 199.721C30.7468 199.721 26.5405 199.721 24.7846 198.492C21.0671 195.919 20.2117 188.2 20.2117 188.2C20.2117 188.2 19.1698 195.919 15.4458 198.492C13.69 199.721 9.48364 199.721 9.48364 199.721L12.1657 200.274C15.8832 201.027 18.8289 204.874 19.4463 209.846C19.584 211.326 19.8181 212.796 20.1474 214.246Z" fill="white"/>
</g>
<path d="M203.894 158.475C204.172 157.225 204.366 155.957 204.473 154.68C205.007 150.396 207.548 147.083 210.751 146.427L213.06 145.957C213.06 145.957 209.432 145.957 207.914 144.896C204.698 142.651 203.972 136.019 203.972 136.019C203.972 136.019 203.071 142.651 199.868 144.896C198.357 145.957 194.723 145.957 194.723 145.957L197.038 146.427C200.254 147.07 202.782 150.396 203.309 154.68C203.423 155.956 203.618 157.224 203.894 158.475Z" fill="#407BFF"/>
<g opacity="0.7">
<path d="M203.894 158.476C204.172 157.225 204.366 155.957 204.473 154.681C205.007 150.396 207.548 147.084 210.751 146.428L213.06 145.958C213.06 145.958 209.432 145.958 207.914 144.897C204.698 142.652 203.972 136.02 203.972 136.02C203.972 136.02 203.071 142.652 199.868 144.897C198.357 145.958 194.723 145.958 194.723 145.958L197.038 146.428C200.254 147.071 202.782 150.396 203.309 154.681C203.423 155.957 203.618 157.225 203.894 158.476Z" fill="white"/>
</g>
<path d="M75.0291 90.2574C75.1577 90.2059 75.505 87.6844 75.8781 84.6867C76.6563 78.3892 80.3802 73.5197 85.0947 72.5613L88.4906 71.8665C88.4906 71.8665 83.1587 71.8665 80.9398 70.3098C76.2254 67.0163 75.1513 57.2773 75.1513 57.2773C75.1513 57.2773 73.8649 67.0163 69.1248 70.3098C66.8994 71.8665 61.574 71.8665 61.574 71.8665L64.9699 72.5613C69.6715 73.5197 73.4019 78.3892 74.1801 84.6867C74.5531 87.7101 74.894 90.2059 75.0291 90.2574Z" fill="#407BFF"/>
<g opacity="0.7">
<path d="M75.0293 90.2569C75.1579 90.2055 75.5053 87.6839 75.8783 84.6863C76.6565 78.3887 80.3805 73.5192 85.0949 72.5608L88.4908 71.866C88.4908 71.866 83.159 71.866 80.94 70.3093C76.2256 67.0158 75.1515 57.2769 75.1515 57.2769C75.1515 57.2769 73.8652 67.0158 69.125 70.3093C66.8997 71.866 61.5742 71.866 61.5742 71.866L64.9702 72.5608C69.6717 73.5192 73.4021 78.3887 74.1803 84.6863C74.5534 87.7096 74.8942 90.2055 75.0293 90.2569Z" fill="white"/>
</g>
<path d="M222.765 229.627C222.9 229.575 223.247 227.054 223.62 224.056C224.399 217.758 228.122 212.889 232.837 211.93L236.233 211.236C236.233 211.236 230.901 211.236 228.676 209.679C223.968 206.379 222.887 196.64 222.887 196.64C222.887 196.64 221.601 206.379 216.854 209.679C214.635 211.236 209.303 211.236 209.303 211.236L212.699 211.93C217.407 212.889 221.138 217.758 221.916 224.056C222.289 227.079 222.636 229.575 222.765 229.627Z" fill="#407BFF"/>
<g opacity="0.7">
<path d="M222.765 229.627C222.9 229.576 223.247 227.054 223.62 224.056C224.399 217.759 228.122 212.889 232.837 211.931L236.233 211.236C236.233 211.236 230.901 211.236 228.676 209.68C223.968 206.38 222.887 196.641 222.887 196.641C222.887 196.641 221.601 206.38 216.854 209.68C214.635 211.236 209.303 211.236 209.303 211.236L212.699 211.931C217.407 212.889 221.138 217.759 221.916 224.056C222.289 227.08 222.636 229.576 222.765 229.627Z" fill="white"/>
</g>
<path d="M168.623 91.7627C168.829 90.8342 168.973 89.8929 169.054 88.9452C169.446 85.7675 171.331 83.3038 173.711 82.8149L175.428 82.4676C175.428 82.4676 172.733 82.4676 171.614 81.6828C169.228 80.0167 168.681 75.0894 168.681 75.0894C168.681 75.0894 168.038 80.0167 165.639 81.6828C164.513 82.4676 161.818 82.4676 161.818 82.4676L163.536 82.8149C165.915 83.3038 167.8 85.7675 168.192 88.9452C168.277 89.8925 168.421 90.8335 168.623 91.7627Z" fill="#407BFF"/>
<g opacity="0.7">
<path d="M168.623 91.7627C168.829 90.8342 168.973 89.8929 169.054 88.9452C169.446 85.7675 171.331 83.3038 173.711 82.8149L175.428 82.4676C175.428 82.4676 172.733 82.4676 171.614 81.6828C169.228 80.0167 168.681 75.0894 168.681 75.0894C168.681 75.0894 168.038 80.0167 165.639 81.6828C164.513 82.4676 161.818 82.4676 161.818 82.4676L163.536 82.8149C165.915 83.3038 167.8 85.7675 168.192 88.9452C168.277 89.8925 168.421 90.8335 168.623 91.7627Z" fill="white"/>
</g>
<path d="M21.3372 131.343C21.547 130.415 21.691 129.473 21.7681 128.525C22.1605 125.348 24.0514 122.884 26.4247 122.395L28.1419 122.048C28.1419 122.048 25.447 122.048 24.3279 121.263C21.9482 119.597 21.4015 114.676 21.4015 114.676C21.4015 114.676 20.7583 119.597 18.3529 121.263C17.2273 122.048 14.5325 122.048 14.5325 122.048L16.2497 122.395C18.6295 122.884 20.5139 125.348 20.9063 128.525C20.9909 129.472 21.1348 130.413 21.3372 131.343Z" fill="#407BFF"/>
<g opacity="0.7">
<path d="M21.3372 131.343C21.547 130.415 21.691 129.474 21.7681 128.526C22.1605 125.348 24.0514 122.884 26.4247 122.395L28.1419 122.048C28.1419 122.048 25.447 122.048 24.3279 121.263C21.9482 119.597 21.4015 114.676 21.4015 114.676C21.4015 114.676 20.7583 119.597 18.3529 121.263C17.2273 122.048 14.5325 122.048 14.5325 122.048L16.2497 122.395C18.6295 122.884 20.5139 125.348 20.9063 128.526C20.9909 129.473 21.1348 130.414 21.3372 131.343Z" fill="white"/>
</g>
</g>
</g>
<defs>
<clipPath id="clip0_232_2534">
<rect width="256" height="256" rx="128" fill="white"/>
</clipPath>
<clipPath id="clip1_232_2534">
<rect width="270.336" height="234.496" fill="white" transform="translate(-7.16797 21.5039)"/>
</clipPath>
</defs>
</svg>
