<svg width="304" height="304" viewBox="0 0 304 304" fill="none" xmlns="http://www.w3.org/2000/svg">
<g clip-path="url(#clip0_247_585)">
<g clip-path="url(#clip1_247_585)">
<path d="M292.091 264.385H268.759V264.56H292.091V264.385Z" fill="#EBEBEB"/>
<path d="M208.486 266.293H202.364V266.468H208.486V266.293Z" fill="#EBEBEB"/>
<path d="M268.055 257.875H254.536V258.05H268.055V257.875Z" fill="#EBEBEB"/>
<path d="M42.5356 259.053H12.1099V259.229H42.5356V259.053Z" fill="#EBEBEB"/>
<path d="M53.2715 259.053H48.8123V259.229H53.2715V259.053Z" fill="#EBEBEB"/>
<path d="M133.763 262.014H67.7694V262.189H133.763V262.014Z" fill="#EBEBEB"/>
<path d="M142.111 221.81H6.09376C5.02694 221.81 4.00381 221.387 3.24945 220.636C2.49508 219.885 2.07129 218.866 2.07129 217.804V27.3904C2.07129 26.3281 2.49508 25.3092 3.24945 24.558C4.00381 23.8068 5.02694 23.3848 6.09376 23.3848H142.111C143.178 23.3848 144.201 23.8068 144.956 24.558C145.71 25.3092 146.134 26.3281 146.134 27.3904V217.804C146.134 218.33 146.03 218.851 145.827 219.337C145.625 219.823 145.329 220.264 144.956 220.636C144.582 221.008 144.139 221.303 143.651 221.505C143.163 221.706 142.639 221.81 142.111 221.81ZM6.09376 23.5601C5.07422 23.562 4.09697 23.9661 3.37604 24.6841C2.65511 25.402 2.24927 26.3752 2.2474 27.3904V217.804C2.24927 218.819 2.65511 219.792 3.37604 220.51C4.09697 221.228 5.07422 221.632 6.09376 221.634H142.111C143.131 221.632 144.108 221.228 144.829 220.51C145.55 219.792 145.956 218.819 145.958 217.804V27.3904C145.956 26.3752 145.55 25.402 144.829 24.6841C144.108 23.9661 143.131 23.562 142.111 23.5601H6.09376Z" fill="#EBEBEB"/>
<path d="M294.493 221.81H158.462C157.395 221.808 156.373 221.385 155.619 220.634C154.865 219.883 154.441 218.866 154.439 217.804V27.3904C154.441 26.3286 154.865 25.3109 155.619 24.56C156.373 23.8092 157.395 23.3866 158.462 23.3848H294.493C295.558 23.3885 296.577 23.8121 297.328 24.5629C298.08 25.3138 298.502 26.3305 298.502 27.3904V217.804C298.502 218.864 298.08 219.881 297.328 220.631C296.577 221.382 295.558 221.806 294.493 221.81ZM158.462 23.5601C157.442 23.562 156.465 23.9661 155.744 24.6841C155.023 25.402 154.617 26.3752 154.615 27.3904V217.804C154.617 218.819 155.023 219.792 155.744 220.51C156.465 221.228 157.442 221.632 158.462 221.634H294.493C295.513 221.632 296.49 221.228 297.211 220.51C297.932 219.792 298.338 218.819 298.34 217.804V27.3904C298.338 26.3752 297.932 25.402 297.211 24.6841C296.49 23.9661 295.513 23.562 294.493 23.5601H158.462Z" fill="#EBEBEB"/>
<path d="M327.385 253.097H-24.8462V253.273H327.385V253.097Z" fill="#EBEBEB"/>
<path d="M224.012 75.9989C207.746 75.3465 161.78 74.7993 162.083 55.9916C162.386 37.1839 183.371 54.9534 183.371 54.9534C183.371 54.9534 191.649 32.5047 203.723 35.3739C215.798 38.2432 218.672 57.5139 218.672 57.5139C218.672 57.5139 224.498 36.3912 238.749 44.8304C249.38 51.1441 245.526 66.9423 245.526 66.9423C245.526 66.9423 260.947 61.4564 262.003 69.9308C263.06 78.4051 233.621 76.4058 224.012 75.9989Z" fill="#F5F5F5"/>
<path d="M40.4152 121.24C33.3706 120.959 13.3779 120.721 13.5048 112.548C13.6316 104.375 22.7614 112.078 22.7614 112.078C22.7614 112.078 26.3541 102.313 31.6024 103.576C36.8506 104.838 38.0975 113.179 38.0975 113.179C38.0975 113.179 40.6336 104.004 46.8187 107.665C51.44 110.408 49.7634 117.276 49.7634 117.276C49.7634 117.276 56.4699 114.891 56.9278 118.574C57.3857 122.257 44.5926 121.408 40.4152 121.24Z" fill="#F5F5F5"/>
<path d="M282.229 104.761C268.196 111.776 221.173 109.307 223.371 95.5221C225.569 81.7373 236.122 95.5221 236.122 95.5221C236.122 95.5221 237.051 81.2322 246.879 80.7341C256.706 80.236 258.411 93.7894 258.411 93.7894C258.411 93.7894 260.679 82.6282 266.723 85.4343C272.768 88.2404 272.211 97.2549 272.211 97.2549C272.211 97.2549 277.051 93.8104 280.186 95.5221C283.32 97.2338 284.356 103.688 282.229 104.761Z" fill="#F5F5F5"/>
<path d="M280.791 243.353C284.257 237.496 284.018 230.768 279.869 227.366C278.138 225.99 275.966 225.284 273.754 225.38C274 219.691 272.134 214.514 268.118 211.189C262.483 206.587 254.177 206.755 246.618 210.852C237.911 198.372 223.631 192.977 213.459 198.828C209.995 200.869 207.294 203.98 205.766 207.688C191.177 202.525 176.179 206.594 171.438 217.418C170.21 220.241 169.737 223.332 170.064 226.391C165.788 225.486 161.688 226.447 159.272 229.372C156.257 233.006 156.736 238.597 159.976 243.353H280.791Z" fill="#F0F0F0"/>
<path d="M237.862 217.937C237.862 217.937 234.98 224.489 244.061 225.654C244.061 225.633 247.668 219.719 237.862 217.937Z" fill="#E0E0E0"/>
<path d="M237.862 217.937C237.862 217.937 243.053 220.61 244.061 225.654C244.061 225.633 247.668 219.719 237.862 217.937Z" fill="#FAFAFA"/>
<path d="M251.014 223.858C251.014 223.858 248.386 229.828 256.65 230.873C256.664 230.873 259.946 225.485 251.014 223.858Z" fill="#E0E0E0"/>
<path d="M251.014 223.858C251.014 223.858 255.748 226.292 256.65 230.873C256.664 230.873 259.946 225.485 251.014 223.858Z" fill="#FAFAFA"/>
<path d="M251.359 217.166C251.359 217.166 246.794 218.94 250.62 223.858C250.598 223.858 255.227 222.736 251.359 217.166Z" fill="#E0E0E0"/>
<path d="M251.359 217.166C251.359 217.166 252.564 220.947 250.619 223.858C250.598 223.858 255.227 222.736 251.359 217.166Z" fill="#FAFAFA"/>
<path d="M259.2 219.607C259.2 219.607 254.712 217.649 253.93 223.816C253.93 223.823 257.981 226.271 259.2 219.607Z" fill="#E0E0E0"/>
<path d="M259.2 219.607C259.2 219.607 257.375 223.115 253.93 223.816C253.93 223.823 257.981 226.271 259.2 219.607Z" fill="#FAFAFA"/>
<path d="M187.366 225.745C187.366 225.745 190.254 232.297 181.166 233.462C181.166 233.441 177.56 227.527 187.366 225.745Z" fill="#E0E0E0"/>
<path d="M187.366 225.745C187.366 225.745 182.174 228.418 181.166 233.462C181.166 233.441 177.56 227.527 187.366 225.745Z" fill="#FAFAFA"/>
<path d="M200.095 222.553C200.095 222.553 193.523 219.684 192.346 228.726C192.367 228.726 198.306 232.318 200.095 222.553Z" fill="#E0E0E0"/>
<path d="M200.095 222.553C200.095 222.553 197.411 227.723 192.346 228.727C192.367 228.727 198.306 232.318 200.095 222.553Z" fill="#FAFAFA"/>
<path d="M194.981 218.498C194.981 218.498 192.959 224.7 186.077 220C186.077 220 187.197 213.798 194.981 218.498Z" fill="#E0E0E0"/>
<path d="M194.981 218.498C194.981 218.498 189.824 217.186 186.077 220C186.077 220 187.197 213.798 194.981 218.498Z" fill="#FAFAFA"/>
<path d="M202.181 221.094C202.181 221.094 206.668 219.13 207.457 225.303C207.457 225.303 203.399 227.758 202.181 221.094Z" fill="#E0E0E0"/>
<path d="M202.181 221.094C202.181 221.094 204.012 224.601 207.457 225.303C207.457 225.303 203.399 227.758 202.181 221.094Z" fill="#FAFAFA"/>
<path d="M195.545 213.496C195.545 213.496 200.032 211.539 200.821 217.705C200.821 217.705 196.763 220.175 195.545 213.496Z" fill="#E0E0E0"/>
<path d="M195.545 213.497C195.545 213.497 197.376 217.004 200.821 217.706C200.821 217.706 196.763 220.175 195.545 213.497Z" fill="#FAFAFA"/>
<path d="M217.989 199.789C217.989 199.789 215.1 206.341 224.188 207.506C224.188 207.492 227.795 201.571 217.989 199.789Z" fill="#E0E0E0"/>
<path d="M217.989 199.789C217.989 199.789 223.174 202.462 224.188 207.506C224.188 207.492 227.795 201.571 217.989 199.789Z" fill="#FAFAFA"/>
<path d="M225.238 209.07C225.238 209.07 222.61 215.04 230.873 216.085C230.873 216.085 234.163 210.69 225.238 209.07Z" fill="#E0E0E0"/>
<path d="M225.238 209.07C225.238 209.07 229.965 211.504 230.873 216.085C230.873 216.085 234.163 210.69 225.238 209.07Z" fill="#FAFAFA"/>
<path d="M226.104 207.183C226.104 207.183 230.021 212.402 235.016 205.745C235.016 205.71 231.923 200.203 226.104 207.183Z" fill="#E0E0E0"/>
<path d="M226.104 207.183C226.104 207.183 230.563 204.285 235.016 205.745C235.016 205.71 231.923 200.203 226.104 207.183Z" fill="#FAFAFA"/>
<path d="M222.828 208.27C222.828 208.27 218.341 206.313 217.552 212.479C217.552 212.486 221.61 214.935 222.828 208.27Z" fill="#E0E0E0"/>
<path d="M222.828 208.27C222.828 208.27 220.997 211.778 217.552 212.479C217.552 212.486 221.61 214.934 222.828 208.27Z" fill="#FAFAFA"/>
<path d="M116.751 241.115C121.055 233.076 119.885 223.676 113.531 218.947C112.626 218.278 111.642 217.722 110.601 217.292C110.868 213.553 109.741 210.185 107.078 208.221C105.432 207.039 103.427 206.457 101.4 206.573C103.514 195.825 99.7027 185.843 91.8972 183.191C83.0774 180.203 72.5316 187.702 68.3471 199.95C66.6316 199.196 64.7113 199.037 62.8945 199.5C61.0777 199.963 59.47 201.021 58.3296 202.504C52.0247 197.79 44.5081 196.829 39.7741 200.701C35.6037 204.117 34.7161 210.375 36.914 216.667C34.7705 217.126 32.7681 218.088 31.074 219.474C25.1213 224.342 24.2619 233.392 28.5027 241.087L116.751 241.115Z" fill="#F0F0F0"/>
<path d="M40.9576 217.958C40.9576 217.958 43.3809 223.444 35.7657 224.405C35.7375 224.405 32.7435 219.445 40.9576 217.958Z" fill="#E0E0E0"/>
<path d="M40.9576 217.958C40.9576 217.958 36.611 220.196 35.7657 224.405C35.7375 224.405 32.7435 219.445 40.9576 217.958Z" fill="#FAFAFA"/>
<path d="M79.076 189.491C79.076 189.491 76.6597 194.977 84.2749 195.945C84.2749 195.959 87.297 190.985 79.076 189.491Z" fill="#E0E0E0"/>
<path d="M79.0759 189.491C79.0759 189.491 83.4295 191.729 84.2748 195.945C84.2748 195.959 87.297 190.985 79.0759 189.491Z" fill="#FAFAFA"/>
<path d="M90.1008 194.457C90.1008 194.457 87.8958 199.452 94.8347 200.329C94.8347 200.329 97.5892 195.811 90.1008 194.457Z" fill="#E0E0E0"/>
<path d="M90.1008 194.457C90.1008 194.457 94.0669 196.491 94.8348 200.329C94.8348 200.329 97.5893 195.811 90.1008 194.457Z" fill="#FAFAFA"/>
<path d="M90.3826 188.845C90.3826 188.845 86.5574 190.332 89.7697 194.457C89.7697 194.457 93.6302 193.51 90.3826 188.845Z" fill="#E0E0E0"/>
<path d="M90.3825 188.845C90.3825 188.845 91.397 192.016 89.7697 194.457C89.7697 194.457 93.6301 193.51 90.3825 188.845Z" fill="#FAFAFA"/>
<path d="M96.9622 190.887C96.9622 190.887 93.2004 189.245 92.5382 194.394C92.5382 194.422 95.9408 196.478 96.9622 190.887Z" fill="#E0E0E0"/>
<path d="M96.9622 190.887C96.9622 190.887 95.4265 193.847 92.5382 194.394C92.5382 194.422 95.9408 196.478 96.9622 190.887Z" fill="#FAFAFA"/>
<path d="M104.387 221.213C104.387 221.213 101.971 226.699 109.586 227.66C109.586 227.632 112.608 222.673 104.387 221.213Z" fill="#E0E0E0"/>
<path d="M104.387 221.213C104.387 221.213 108.741 223.451 109.586 227.66C109.586 227.632 112.608 222.673 104.387 221.213Z" fill="#FAFAFA"/>
<path d="M93.7217 218.505C93.7217 218.505 99.2376 216.099 100.203 223.682C100.203 223.682 95.2222 226.692 93.7217 218.505Z" fill="#E0E0E0"/>
<path d="M93.7217 218.505C93.7217 218.505 95.9689 222.841 100.203 223.683C100.203 223.683 95.2222 226.692 93.7217 218.505Z" fill="#FAFAFA"/>
<path d="M98.0118 215.11C98.0118 215.11 99.7026 220.301 105.472 216.366C105.479 216.366 104.507 211.167 98.0118 215.11Z" fill="#E0E0E0"/>
<path d="M98.0118 215.11C98.0118 215.11 102.33 214.008 105.472 216.366C105.479 216.366 104.507 211.167 98.0118 215.11Z" fill="#FAFAFA"/>
<path d="M91.9747 217.284C91.9747 217.284 88.2199 215.636 87.5577 220.792C87.5577 220.813 90.9532 222.869 91.9747 217.284Z" fill="#E0E0E0"/>
<path d="M91.9747 217.285C91.9747 217.285 90.446 220.238 87.5577 220.792C87.5577 220.813 90.9532 222.869 91.9747 217.285Z" fill="#FAFAFA"/>
<path d="M97.5399 210.929C97.5399 210.929 93.778 209.287 93.1158 214.437C93.1158 214.465 96.5184 216.513 97.5399 210.929Z" fill="#E0E0E0"/>
<path d="M97.5399 210.929C97.5399 210.929 96.0041 213.889 93.1158 214.436C93.1158 214.464 96.5184 216.513 97.5399 210.929Z" fill="#FAFAFA"/>
<path d="M42.7117 210.171C42.7117 210.171 40.2954 215.664 47.9106 216.625C47.9106 216.625 50.9257 211.666 42.7117 210.171Z" fill="#E0E0E0"/>
<path d="M42.7117 210.171C42.7117 210.171 47.0582 212.416 47.9106 216.625C47.9106 216.625 50.9257 211.666 42.7117 210.171Z" fill="#FAFAFA"/>
<path d="M48.7841 217.951C48.7841 217.951 46.5791 222.953 53.5181 223.83C53.5181 223.83 56.2725 219.312 48.7841 217.951Z" fill="#E0E0E0"/>
<path d="M48.7842 217.951C48.7842 217.951 52.7433 219.993 53.5182 223.83C53.5182 223.83 56.2726 219.312 48.7842 217.951Z" fill="#FAFAFA"/>
<path d="M49.5098 216.337C49.5098 216.337 52.7926 220.715 56.9841 215.138C56.9841 215.138 54.3917 210.522 49.5098 216.337Z" fill="#E0E0E0"/>
<path d="M49.5098 216.337C49.5098 216.337 53.2505 213.91 56.9841 215.138C56.9841 215.138 54.3917 210.522 49.5098 216.337Z" fill="#FAFAFA"/>
<path d="M46.7694 217.284C46.7694 217.284 43.0075 215.636 42.3453 220.792C42.3453 220.813 45.7479 222.869 46.7694 217.284Z" fill="#E0E0E0"/>
<path d="M46.7694 217.285C46.7694 217.285 45.2336 220.238 42.3453 220.792C42.3453 220.813 45.7479 222.869 46.7694 217.285Z" fill="#FAFAFA"/>
<path d="M223.568 252.978H253.578L254.071 247.184C254.172 246.025 254.02 244.859 253.627 243.764C253.233 242.669 252.607 241.672 251.791 240.84C250.976 240.009 249.989 239.362 248.899 238.944C247.81 238.527 246.642 238.349 245.477 238.422L230.444 239.355C229.321 239.424 228.225 239.725 227.225 240.239C226.225 240.752 225.343 241.467 224.635 242.337C223.927 243.208 223.409 244.215 223.112 245.296C222.816 246.376 222.748 247.507 222.913 248.615L223.568 252.978Z" fill="#F5F5F5"/>
<path d="M48.2839 252.978H11.2011L10.3769 246.061C10.2794 245.201 10.3607 244.33 10.6155 243.502C10.8703 242.675 11.2933 241.908 11.8582 241.25C12.423 240.593 13.1177 240.057 13.899 239.678C14.6803 239.299 15.5316 239.084 16.4 239.046L43.0216 238.007C43.9524 237.976 44.8786 238.15 45.7344 238.515C46.5903 238.881 47.3547 239.43 47.9735 240.123C48.5922 240.816 49.0499 241.637 49.3142 242.526C49.5785 243.415 49.6429 244.351 49.5026 245.268L48.2839 252.978Z" fill="#E6E6E6"/>
<path d="M110.939 252.978H71.4326L70.8126 247.366C70.6893 246.259 70.8043 245.139 71.15 244.08C71.4957 243.021 72.0641 242.047 72.8174 241.224C73.5707 240.401 74.4915 239.747 75.5184 239.306C76.5454 238.865 77.6549 238.647 78.7731 238.667L104.408 239.13C105.583 239.152 106.738 239.435 107.789 239.958C108.84 240.482 109.759 241.233 110.481 242.156C111.202 243.08 111.707 244.153 111.958 245.296C112.209 246.439 112.2 247.623 111.932 248.762L110.939 252.978Z" fill="#E6E6E6"/>
<path d="M75.1873 252.978H45.1561L44.5221 247.212C44.4371 246.439 44.5182 245.656 44.7598 244.917C45.0015 244.177 45.3983 243.498 45.9239 242.922C46.4495 242.347 47.0919 241.89 47.8085 241.581C48.5251 241.272 49.2995 241.118 50.0803 241.13L70.6787 241.417C71.474 241.428 72.2573 241.611 72.9752 241.952C73.693 242.293 74.3283 242.784 74.8375 243.393C75.3467 244.001 75.7178 244.712 75.9253 245.476C76.1328 246.241 76.1718 247.041 76.0397 247.822L75.1873 252.978Z" fill="#F5F5F5"/>
<path d="M133.925 252.978H103.922L103.422 247.184C103.322 246.025 103.473 244.859 103.867 243.764C104.26 242.669 104.886 241.672 105.702 240.84C106.518 240.009 107.504 239.362 108.594 238.944C109.684 238.527 110.851 238.349 112.017 238.422L127.05 239.355C128.173 239.424 129.269 239.725 130.268 240.239C131.268 240.752 132.15 241.467 132.858 242.337C133.566 243.208 134.085 244.215 134.381 245.296C134.678 246.376 134.746 247.507 134.58 248.615L133.925 252.978Z" fill="#F5F5F5"/>
<path d="M284.102 252.978H247.02L246.202 246.061C246.105 245.201 246.186 244.33 246.441 243.503C246.696 242.675 247.119 241.909 247.684 241.251C248.249 240.593 248.943 240.058 249.725 239.678C250.506 239.299 251.357 239.084 252.226 239.046L278.84 238.008C279.771 237.975 280.698 238.148 281.555 238.513C282.412 238.878 283.177 239.427 283.797 240.12C284.416 240.814 284.875 241.634 285.139 242.524C285.404 243.414 285.469 244.351 285.328 245.268L284.102 252.978Z" fill="#E6E6E6"/>
<path d="M193.734 252.978H230.817L231.634 246.061C231.732 245.201 231.65 244.33 231.395 243.503C231.141 242.675 230.718 241.909 230.153 241.251C229.588 240.593 228.893 240.058 228.112 239.678C227.331 239.299 226.479 239.084 225.611 239.046L198.996 238.008C198.065 237.975 197.138 238.148 196.281 238.513C195.425 238.878 194.659 239.427 194.04 240.12C193.42 240.814 192.962 241.634 192.697 242.524C192.432 243.414 192.368 244.351 192.508 245.268L193.734 252.978Z" fill="#E6E6E6"/>
<path d="M131.079 252.978H170.586L171.205 247.366C171.329 246.259 171.214 245.139 170.868 244.08C170.522 243.021 169.954 242.047 169.201 241.224C168.448 240.401 167.527 239.747 166.5 239.306C165.473 238.865 164.363 238.647 163.245 238.667L137.61 239.13C136.435 239.152 135.28 239.435 134.229 239.958C133.179 240.482 132.259 241.233 131.537 242.156C130.816 243.08 130.311 244.153 130.06 245.296C129.809 246.439 129.818 247.623 130.086 248.762L131.079 252.978Z" fill="#E6E6E6"/>
<path d="M166.859 252.978H196.862L197.496 247.212C197.581 246.439 197.5 245.656 197.258 244.917C197.017 244.177 196.62 243.498 196.094 242.922C195.569 242.347 194.926 241.89 194.21 241.581C193.493 241.272 192.719 241.118 191.938 241.13L171.339 241.417C170.544 241.428 169.761 241.611 169.043 241.952C168.325 242.293 167.69 242.784 167.181 243.393C166.671 244.001 166.3 244.712 166.093 245.476C165.885 246.241 165.846 247.041 165.978 247.822L166.859 252.978Z" fill="#F5F5F5"/>
<path d="M97.9907 88.226C83.9508 95.2412 36.928 92.7788 39.1259 78.987C41.3239 65.1951 51.8767 78.987 51.8767 78.987C51.8767 78.987 52.8066 64.697 62.6338 64.1989C72.4611 63.7009 74.1659 77.2612 74.1659 77.2612C74.1659 77.2612 76.4342 66.093 82.4855 68.8991C88.5369 71.7052 87.9663 80.7197 87.9663 80.7197C87.9663 80.7197 92.8059 77.2753 95.9408 78.987C99.0756 80.6987 100.111 87.1667 97.9907 88.226Z" fill="#F5F5F5"/>
<path d="M147.874 282.077C223.309 282.077 284.462 278.522 284.462 274.136C284.462 269.75 223.309 266.195 147.874 266.195C72.4382 266.195 11.2856 269.75 11.2856 274.136C11.2856 278.522 72.4382 282.077 147.874 282.077Z" fill="#F5F5F5"/>
<path d="M49.2631 193.616C56.3246 193.616 62.0491 188.795 62.0491 182.847C62.0491 176.9 56.3246 172.079 49.2631 172.079C42.2016 172.079 36.4772 176.9 36.4772 182.847C36.4772 188.795 42.2016 193.616 49.2631 193.616Z" fill="#407BFF"/>
<path d="M48.2769 172.808C48.2769 172.808 50.2424 165.344 52.0881 166.081C53.9338 166.818 50.2424 168.648 50.186 172.808C50.186 172.808 54.3001 169.14 57.0052 171.342C57.0052 171.342 53.0743 171.216 51.4752 173.791C51.4752 173.791 55.0398 175.993 58.231 175.502C58.231 175.502 56.2655 177.481 50.3692 175.572C50.3692 175.572 51.8415 181.009 48.2558 180.153C48.5398 179.912 48.7679 179.612 48.9242 179.274C49.0806 178.936 49.1615 178.568 49.1615 178.196C49.1615 177.824 49.0806 177.457 48.9242 177.119C48.7679 176.781 48.5398 176.481 48.2558 176.239C48.2558 176.239 40.7603 180.153 40.2672 175.502C41.3657 175.957 42.5705 176.095 43.744 175.9C44.9175 175.706 46.0123 175.186 46.9032 174.401C46.9032 174.401 44.5715 170.36 41.493 170.606C41.5141 170.585 44.5926 168.017 48.2769 172.808Z" fill="#263238"/>
<path opacity="0.2" d="M61.5701 179.613C62.0843 184.005 59.9287 190.711 49.9746 190.711C40.563 190.711 37.9143 188.081 37.6395 187.779C39.6543 191.602 44.0924 193.616 49.2631 193.616C56.3078 193.616 62.0421 189.877 62.0421 182.847C62.0476 181.752 61.8885 180.662 61.5701 179.613Z" fill="black"/>
<path opacity="0.2" d="M43.705 187.772C43.705 187.772 37.1606 185.148 38.9147 180.918C40.6688 176.688 40.6124 184.945 43.705 187.772Z" fill="white"/>
<path d="M49.4815 111.874L48.3332 109.77L44.5221 118.406L40.9998 107.637L39.5416 111.846H33.2014C33.4621 112.148 33.7438 112.443 34.0397 112.737L44.6982 123.302L55.3497 112.737C55.6526 112.443 55.9344 112.148 56.188 111.846L49.4815 111.874Z" fill="#407BFF"/>
<path d="M38.3792 110.282L41.021 102.656L44.7405 113.979L48.1853 106.164L50.4326 110.275H57.3715C58.3394 108.795 58.8692 107.074 58.9002 105.308C58.9002 101.26 56.188 98.5664 52.081 98.5664C48.2487 98.5664 46.9384 100.334 44.6982 102.888C42.451 100.334 41.1759 98.5664 37.3155 98.5664C33.2014 98.5664 30.4893 101.26 30.4893 105.308C30.5196 107.075 31.0521 108.797 32.025 110.275L38.3792 110.282Z" fill="#407BFF"/>
<g opacity="0.3">
<path d="M49.4815 111.874L48.3332 109.77L44.5221 118.406L40.9998 107.637L39.5416 111.846H33.2014C33.4621 112.148 33.7438 112.443 34.0397 112.737L44.6982 123.302L55.3497 112.737C55.6526 112.443 55.9344 112.148 56.188 111.846L49.4815 111.874Z" fill="white"/>
<path d="M38.3792 110.282L41.021 102.656L44.7405 113.979L48.1853 106.164L50.4326 110.275H57.3715C58.3394 108.795 58.8692 107.074 58.9002 105.308C58.9002 101.26 56.188 98.5664 52.081 98.5664C48.2487 98.5664 46.9384 100.334 44.6982 102.888C42.451 100.334 41.1759 98.5664 37.3155 98.5664C33.2014 98.5664 30.4893 101.26 30.4893 105.308C30.5196 107.075 31.0521 108.797 32.025 110.275L38.3792 110.282Z" fill="white"/>
</g>
<path d="M82.9365 56.6717L84.5215 57.2399C84.5215 57.2399 97.4766 61.1474 104.845 54.1392C112.214 47.131 114.355 38.8741 117.047 39.0916C119.738 39.3091 121.048 51.298 108.79 61.2666C96.5326 71.2352 85.543 65.7073 82.7674 59.12L81.6896 57.9414L82.9365 56.6717Z" fill="#407BFF"/>
<path opacity="0.6" d="M117.068 39.0916C114.377 38.8741 112.228 47.124 104.866 54.1392C97.8218 60.8387 85.6839 57.5696 84.6272 57.268L82.7675 59.113C85.5078 65.7002 96.5326 71.2142 108.79 61.2596C121.048 51.3051 119.752 39.3091 117.068 39.0916Z" fill="white"/>
<path d="M108.797 59.5548C108.797 59.5548 113.573 61.6594 111.369 64.1498C109.164 66.6402 105.993 68.5343 106.585 69.5515C107.177 70.5687 118.624 64.5216 110.403 59.2251L108.797 59.5548Z" fill="#407BFF"/>
<path opacity="0.3" d="M108.797 59.5548C108.797 59.5548 113.573 61.6594 111.369 64.1498C109.164 66.6402 105.993 68.5343 106.585 69.5515C107.177 70.5687 118.624 64.5216 110.403 59.2251L108.797 59.5548Z" fill="white"/>
<path d="M103.521 51.9435C98.2585 46.0788 89.3823 50.4984 89.5373 49.4811C89.6923 48.4639 99.759 45.9736 104.592 51.4033C109.424 56.8331 103.627 60.2916 96.6946 61.414C89.7627 62.5364 83.7325 58.1519 83.7325 58.1519L84.5427 57.24C84.5427 57.24 95.8141 60.6423 103.317 55.402C103.772 55.0887 104.088 54.6132 104.201 54.0739C104.314 53.5346 104.214 52.9728 103.922 52.5047C103.803 52.3076 103.669 52.12 103.521 51.9435Z" fill="#407BFF"/>
<path opacity="0.3" d="M103.521 51.9435C98.2585 46.0788 89.3823 50.4984 89.5373 49.4811C89.6923 48.4639 99.759 45.9736 104.592 51.4033C109.424 56.8331 103.627 60.2916 96.6946 61.414C89.7627 62.5364 83.7325 58.1519 83.7325 58.1519L84.5427 57.24C84.5427 57.24 95.8141 60.6423 103.317 55.402C103.772 55.0887 104.088 54.6132 104.201 54.0739C104.314 53.5346 104.214 52.9728 103.922 52.5047C103.803 52.3076 103.669 52.12 103.521 51.9435Z" fill="white"/>
<path d="M99.9352 66.0512C91.538 68.3873 84.8245 64.0519 82.7675 59.1132L83.7326 58.1521C83.7326 58.1521 89.7557 62.5436 96.6947 61.4142C100.435 60.8109 103.845 59.5341 105.437 57.626C106.888 57.7593 109.706 58.3696 110.411 61.4703C111.207 64.9779 102.964 68.6889 99.5055 68.5416C98.8926 68.5416 96.4411 67.9383 99.7661 66.0933L99.9352 66.0512Z" fill="#407BFF"/>
<path opacity="0.3" d="M99.9351 66.0512L99.6252 66.1705C96.5044 67.9523 98.9207 68.5136 99.4983 68.5416C102.957 68.6889 111.199 64.9989 110.403 61.4703C109.699 58.3696 106.881 57.7382 105.437 57.626C109.769 58.5871 99.9351 66.0512 99.9351 66.0512Z" fill="white"/>
<path d="M218.637 64.2625C221.269 64.2625 223.794 63.2211 225.656 61.3674C227.517 59.5137 228.563 56.9996 228.563 54.3781C228.563 51.7566 227.517 49.2424 225.656 47.3887C223.794 45.535 221.269 44.4937 218.637 44.4937H215.65C213.018 44.4937 210.493 45.535 208.631 47.3887C206.77 49.2424 205.724 51.7566 205.724 54.3781C205.724 56.9996 206.77 59.5137 208.631 61.3674C210.493 63.2211 213.018 64.2625 215.65 64.2625H218.637Z" fill="#407BFF"/>
<path opacity="0.5" d="M218.637 64.2625C221.269 64.2625 223.794 63.2211 225.656 61.3674C227.517 59.5137 228.563 56.9996 228.563 54.3781C228.563 51.7566 227.517 49.2424 225.656 47.3887C223.794 45.535 221.269 44.4937 218.637 44.4937H215.65C213.018 44.4937 210.493 45.535 208.631 47.3887C206.77 49.2424 205.724 51.7566 205.724 54.3781C205.724 56.9996 206.77 59.5137 208.631 61.3674C210.493 63.2211 213.018 64.2625 215.65 64.2625H218.637Z" fill="white"/>
<path d="M225.454 55.9615C226.332 50.5731 222.658 45.4958 217.246 44.6211C211.835 43.7464 206.737 47.4056 205.858 52.7941C204.98 58.1825 208.655 63.2598 214.066 64.1345C219.477 65.0092 224.575 61.35 225.454 55.9615Z" fill="#407BFF"/>
<path d="M214.671 56.8757C215.336 56.8757 215.974 56.6126 216.444 56.1442C216.914 55.6758 217.179 55.0406 217.179 54.3783C217.179 53.7159 216.914 53.0807 216.444 52.6123C215.974 52.144 215.336 51.8809 214.671 51.8809H201.836C201.17 51.8809 200.532 52.144 200.062 52.6123C199.592 53.0807 199.328 53.7159 199.328 54.3783C199.328 55.0406 199.592 55.6758 200.062 56.1442C200.532 56.6126 201.17 56.8757 201.836 56.8757H214.671Z" fill="#263238"/>
<path d="M193.192 64.2625C195.824 64.2625 198.349 63.2211 200.21 61.3674C202.072 59.5137 203.118 56.9996 203.118 54.3781C203.118 51.7566 202.072 49.2424 200.21 47.3887C198.349 45.535 195.824 44.4937 193.192 44.4937H190.198C187.565 44.4937 185.041 45.535 183.179 47.3887C181.318 49.2424 180.272 51.7566 180.272 54.3781C180.272 56.9996 181.318 59.5137 183.179 61.3674C185.041 63.2211 187.565 64.2625 190.198 64.2625H193.192Z" fill="#407BFF"/>
<path opacity="0.5" d="M193.192 64.2625C195.824 64.2625 198.349 63.2211 200.21 61.3674C202.072 59.5137 203.118 56.9996 203.118 54.3781C203.118 51.7566 202.072 49.2424 200.21 47.3887C198.349 45.535 195.824 44.4937 193.192 44.4937H190.198C187.565 44.4937 185.041 45.535 183.179 47.3887C181.318 49.2424 180.272 51.7566 180.272 54.3781C180.272 56.9996 181.318 59.5137 183.179 61.3674C185.041 63.2211 187.565 64.2625 190.198 64.2625H193.192Z" fill="white"/>
<path d="M197.217 61.3663C201.094 57.5062 201.094 51.2477 197.217 47.3876C193.341 43.5275 187.056 43.5275 183.18 47.3876C179.304 51.2477 179.304 57.5062 183.18 61.3663C187.056 65.2264 193.341 65.2264 197.217 61.3663Z" fill="#407BFF"/>
<path opacity="0.3" d="M196.313 55.2201C196.388 54.6614 196.388 54.0951 196.313 53.5364L195.256 53.2278C195.189 52.9253 195.094 52.6295 194.974 52.3438L195.65 51.4459C195.38 50.9497 195.043 50.492 194.65 50.085L193.614 50.4497C193.381 50.2456 193.129 50.0647 192.861 49.9096L192.896 48.8082C192.383 48.5663 191.841 48.3918 191.283 48.2891L190.663 49.194C190.508 49.194 190.353 49.194 190.198 49.194C190.043 49.194 189.881 49.194 189.733 49.194L189.113 48.2891C188.555 48.3907 188.012 48.5652 187.5 48.8082V49.9096C187.233 50.0664 186.98 50.2472 186.746 50.4497L185.71 50.085C185.327 50.4937 185 50.9514 184.738 51.4459L185.407 52.3158C185.282 52.6001 185.185 52.8962 185.119 53.1997L184.069 53.5084C183.984 54.0664 183.984 54.634 184.069 55.192L185.119 55.5007C185.185 55.8042 185.282 56.1003 185.407 56.3846L184.738 57.2545C185.007 57.7502 185.341 58.2079 185.732 58.6154L186.767 58.2506C187.003 58.4509 187.255 58.6316 187.521 58.7908V59.8922C188.033 60.1351 188.576 60.3097 189.134 60.4113L189.754 59.5064C189.904 59.5064 190.059 59.5064 190.219 59.5064H190.684L191.304 60.4113C191.862 60.3086 192.404 60.1341 192.917 59.8922L192.833 58.8189C193.099 58.6613 193.352 58.4806 193.586 58.2787L194.622 58.6435C195.025 58.2382 195.371 57.7804 195.65 57.2825L194.946 56.4127C195.066 56.127 195.16 55.8312 195.228 55.5287L196.313 55.2201Z" fill="white"/>
<path d="M189.923 56.8757C190.588 56.8757 191.226 56.6126 191.696 56.1442C192.167 55.6758 192.431 55.0406 192.431 54.3783C192.431 53.7159 192.167 53.0807 191.696 52.6123C191.226 52.144 190.588 51.8809 189.923 51.8809H187.901C187.236 51.8809 186.598 52.144 186.128 52.6123C185.658 53.0807 185.393 53.7159 185.393 54.3783C185.393 55.0406 185.658 55.6758 186.128 56.1442C186.598 56.6126 187.236 56.8757 187.901 56.8757H189.923Z" fill="#263238"/>
<path opacity="0.4" d="M190.395 54.3783C190.395 54.8728 190.248 55.3562 189.971 55.7672C189.695 56.1782 189.303 56.4983 188.844 56.6869C188.385 56.8755 187.88 56.9242 187.393 56.8267C186.906 56.7291 186.459 56.4899 186.109 56.1392C185.759 55.7885 185.521 55.3422 185.426 54.8569C185.331 54.3715 185.382 53.8689 185.574 53.4128C185.766 52.9567 186.09 52.5677 186.504 52.295C186.918 52.0222 187.405 51.8781 187.901 51.8809C188.564 51.8846 189.198 52.1494 189.665 52.6173C190.133 53.0853 190.395 53.7184 190.395 54.3783Z" fill="white"/>
<path d="M258.157 100.475C261.75 101.443 267.794 101.702 268.59 96.9671C269.9 89.11 256.903 92.9123 253.022 92.6106C252.826 92.5939 252.632 92.655 252.482 92.7807C252.332 92.9063 252.239 93.0861 252.222 93.2806C252.205 93.475 252.267 93.6681 252.393 93.8174C252.519 93.9668 252.699 94.06 252.895 94.0768C256.135 94.3293 267.16 91.3268 267.188 96.1813C267.188 100.348 261.391 99.8293 258.671 99.0997C257.763 98.8612 257.262 100.229 258.157 100.503V100.475Z" fill="#263238"/>
<path d="M259.756 100.502L259.932 98.5031L244.011 97.1001L243.842 99.0994C243.445 99.2319 243.096 99.4772 242.836 99.8049C242.577 100.133 242.42 100.529 242.384 100.944L239.566 133.214C239.541 133.496 239.572 133.78 239.657 134.049C239.743 134.319 239.881 134.569 240.063 134.785C240.246 135.002 240.47 135.18 240.722 135.31C240.974 135.44 241.249 135.52 241.532 135.543L255.706 136.778C256.275 136.827 256.841 136.649 257.279 136.283C257.717 135.918 257.992 135.395 258.044 134.828L260.862 102.558C260.896 102.146 260.81 101.732 260.614 101.368C260.418 101.003 260.12 100.703 259.756 100.502Z" fill="#407BFF"/>
<path opacity="0.2" d="M259.756 100.502L259.932 98.5031L244.011 97.1001L243.842 99.0994C243.445 99.2319 243.096 99.4772 242.836 99.8049C242.577 100.133 242.42 100.529 242.384 100.944L239.566 133.214C239.541 133.496 239.572 133.78 239.657 134.049C239.743 134.319 239.881 134.569 240.063 134.785C240.246 135.002 240.47 135.18 240.722 135.31C240.974 135.44 241.249 135.52 241.532 135.543L255.706 136.778C256.275 136.827 256.841 136.649 257.279 136.283C257.717 135.918 257.992 135.395 258.044 134.828L260.862 102.558C260.896 102.146 260.81 101.732 260.614 101.368C260.418 101.003 260.12 100.703 259.756 100.502Z" fill="white"/>
<path d="M260.134 94.5497L244.561 93.193C243.759 93.1231 243.052 93.7141 242.981 94.513L242.835 96.1763C242.765 96.9752 243.359 97.6796 244.161 97.7495L259.733 99.1062C260.536 99.1761 261.243 98.5851 261.313 97.7861L261.459 96.1229C261.529 95.3239 260.936 94.6196 260.134 94.5497Z" fill="#407BFF"/>
<path opacity="0.3" d="M260.134 94.5497L244.561 93.193C243.759 93.1231 243.052 93.7141 242.981 94.513L242.835 96.1763C242.765 96.9752 243.359 97.6796 244.161 97.7495L259.733 99.1062C260.536 99.1761 261.243 98.5851 261.313 97.7861L261.459 96.1229C261.529 95.3239 260.936 94.6196 260.134 94.5497Z" fill="black"/>
<path opacity="0.9" d="M253.522 106.816C250.359 105.932 247.009 105.963 243.864 106.908L241.539 133.411C241.535 133.462 241.551 133.513 241.584 133.552C241.617 133.591 241.664 133.616 241.715 133.621L255.889 134.856C255.915 134.858 255.941 134.855 255.965 134.847C255.99 134.839 256.013 134.826 256.032 134.809C256.052 134.792 256.068 134.771 256.08 134.748C256.091 134.725 256.098 134.7 256.1 134.674L258.509 107.314C256.83 107.471 255.136 107.302 253.522 106.816Z" fill="white"/>
<path d="M253.416 113.516C253.339 114.394 253.002 115.229 252.448 115.916C251.894 116.603 251.148 117.111 250.304 117.376C249.46 117.641 248.556 117.65 247.707 117.403C246.858 117.157 246.101 116.665 245.532 115.99C244.964 115.314 244.609 114.487 244.513 113.611C244.417 112.735 244.584 111.85 244.993 111.069C245.401 110.287 246.034 109.644 246.809 109.221C247.585 108.797 248.47 108.612 249.351 108.689C250.532 108.795 251.623 109.362 252.385 110.266C253.147 111.171 253.518 112.34 253.416 113.516Z" fill="#407BFF"/>
<path opacity="0.4" d="M253.416 113.516C253.339 114.394 253.002 115.229 252.448 115.916C251.894 116.603 251.148 117.111 250.304 117.376C249.46 117.641 248.556 117.65 247.707 117.403C246.858 117.157 246.101 116.665 245.532 115.99C244.964 115.314 244.609 114.487 244.513 113.611C244.417 112.735 244.584 111.85 244.993 111.069C245.401 110.287 246.034 109.644 246.809 109.221C247.585 108.797 248.47 108.612 249.351 108.689C250.532 108.795 251.623 109.362 252.385 110.266C253.147 111.171 253.518 112.34 253.416 113.516Z" fill="white"/>
<g opacity="0.9">
<path d="M248.485 109.742C248.103 109.791 247.734 109.907 247.393 110.085C247.34 110.113 247.294 110.153 247.258 110.2C247.223 110.248 247.198 110.303 247.187 110.362C247.175 110.42 247.177 110.481 247.192 110.539C247.207 110.596 247.235 110.65 247.273 110.696L248.746 112.442L248.943 110.176C248.949 110.116 248.941 110.055 248.92 109.998C248.898 109.941 248.864 109.89 248.82 109.848C248.776 109.806 248.723 109.775 248.665 109.756C248.607 109.738 248.545 109.733 248.485 109.742Z" fill="white"/>
<path d="M248.309 112.793L246.843 111.074C246.806 111.028 246.758 110.99 246.704 110.964C246.65 110.938 246.59 110.924 246.53 110.924C246.47 110.924 246.41 110.938 246.356 110.964C246.302 110.99 246.254 111.028 246.217 111.074C245.984 111.379 245.806 111.72 245.688 112.084C245.67 112.142 245.665 112.204 245.674 112.263C245.683 112.323 245.705 112.381 245.738 112.431C245.772 112.482 245.817 112.524 245.869 112.555C245.921 112.586 245.98 112.605 246.04 112.611L248.309 112.793Z" fill="white"/>
<path d="M248.266 113.34L245.991 113.144C245.93 113.138 245.869 113.146 245.812 113.167C245.755 113.188 245.703 113.222 245.661 113.266C245.619 113.31 245.587 113.363 245.569 113.421C245.55 113.479 245.545 113.54 245.554 113.6C245.605 113.98 245.722 114.348 245.899 114.687C245.927 114.74 245.967 114.786 246.015 114.821C246.063 114.857 246.119 114.881 246.177 114.893C246.236 114.904 246.297 114.902 246.355 114.887C246.413 114.873 246.467 114.845 246.512 114.807L248.266 113.34Z" fill="white"/>
<path d="M249.485 110.226L249.288 112.484L251.035 111.025C251.082 110.988 251.12 110.94 251.146 110.886C251.172 110.832 251.186 110.773 251.186 110.713C251.186 110.653 251.172 110.594 251.146 110.54C251.12 110.486 251.082 110.438 251.035 110.401C250.727 110.168 250.382 109.99 250.014 109.875C249.955 109.855 249.894 109.849 249.833 109.857C249.772 109.866 249.714 109.887 249.663 109.921C249.612 109.955 249.569 110 249.539 110.053C249.508 110.106 249.49 110.165 249.485 110.226Z" fill="white"/>
<path d="M249.598 113.459L251.063 115.199C251.101 115.246 251.149 115.284 251.203 115.31C251.257 115.336 251.316 115.349 251.377 115.349C251.437 115.349 251.496 115.336 251.551 115.31C251.605 115.284 251.653 115.246 251.69 115.199C251.924 114.893 252.103 114.549 252.218 114.182C252.237 114.125 252.242 114.064 252.233 114.004C252.224 113.945 252.202 113.888 252.168 113.838C252.134 113.788 252.09 113.746 252.037 113.716C251.985 113.686 251.927 113.668 251.866 113.663L249.598 113.459Z" fill="white"/>
<path d="M249.64 112.912L251.916 113.109C251.976 113.113 252.037 113.104 252.093 113.083C252.15 113.061 252.201 113.027 252.243 112.984C252.284 112.94 252.316 112.888 252.335 112.831C252.354 112.773 252.36 112.712 252.352 112.653C252.303 112.273 252.186 111.905 252.007 111.565C251.979 111.513 251.94 111.467 251.892 111.431C251.843 111.396 251.788 111.371 251.729 111.36C251.671 111.349 251.61 111.35 251.552 111.365C251.494 111.38 251.44 111.408 251.394 111.446L249.64 112.912Z" fill="white"/>
<path d="M248.619 113.761L246.872 115.227C246.825 115.265 246.787 115.312 246.761 115.366C246.735 115.42 246.721 115.48 246.721 115.54C246.721 115.6 246.735 115.659 246.761 115.713C246.787 115.767 246.825 115.814 246.872 115.852C247.179 116.084 247.525 116.262 247.893 116.378C247.951 116.396 248.012 116.401 248.072 116.392C248.132 116.384 248.189 116.362 248.239 116.328C248.289 116.294 248.331 116.25 248.361 116.198C248.392 116.145 248.41 116.087 248.414 116.027L248.619 113.761Z" fill="white"/>
<path d="M249.189 113.811L248.992 116.076C248.987 116.137 248.996 116.197 249.018 116.253C249.04 116.31 249.074 116.36 249.117 116.402C249.161 116.444 249.214 116.475 249.271 116.494C249.329 116.513 249.39 116.519 249.45 116.511C249.831 116.462 250.201 116.346 250.542 116.168C250.595 116.14 250.641 116.1 250.676 116.053C250.712 116.005 250.737 115.949 250.748 115.891C250.76 115.832 250.758 115.772 250.743 115.714C250.728 115.657 250.7 115.603 250.662 115.557L249.189 113.811Z" fill="white"/>
</g>
<path d="M255.994 127.49C255.917 128.366 255.581 129.2 255.028 129.886C254.476 130.572 253.731 131.079 252.889 131.344C252.047 131.608 251.145 131.618 250.297 131.372C249.449 131.126 248.693 130.636 248.125 129.962C247.557 129.289 247.202 128.463 247.106 127.589C247.009 126.715 247.175 125.832 247.582 125.051C247.989 124.271 248.619 123.628 249.393 123.205C250.167 122.781 251.05 122.595 251.93 122.671C252.514 122.721 253.084 122.886 253.604 123.155C254.125 123.425 254.588 123.794 254.965 124.241C255.343 124.689 255.628 125.206 255.804 125.764C255.981 126.321 256.046 126.908 255.994 127.49Z" fill="#407BFF"/>
<path opacity="0.4" d="M255.994 127.49C255.917 128.366 255.581 129.2 255.028 129.886C254.476 130.572 253.731 131.079 252.889 131.344C252.047 131.608 251.145 131.618 250.297 131.372C249.449 131.126 248.693 130.636 248.125 129.962C247.557 129.289 247.202 128.463 247.106 127.589C247.009 126.715 247.175 125.832 247.582 125.051C247.989 124.271 248.619 123.628 249.393 123.205C250.167 122.781 251.05 122.595 251.93 122.671C252.514 122.721 253.084 122.886 253.604 123.155C254.125 123.425 254.588 123.794 254.965 124.241C255.343 124.689 255.628 125.206 255.804 125.764C255.981 126.321 256.046 126.908 255.994 127.49Z" fill="white"/>
<g opacity="0.9">
<path d="M251.07 123.702C250.689 123.754 250.32 123.871 249.978 124.046C249.924 124.073 249.877 124.113 249.841 124.161C249.804 124.21 249.779 124.266 249.768 124.325C249.756 124.385 249.758 124.446 249.774 124.505C249.79 124.563 249.819 124.617 249.859 124.663L251.324 126.403L251.521 124.137C251.527 124.077 251.519 124.017 251.498 123.96C251.477 123.904 251.444 123.853 251.401 123.811C251.357 123.77 251.305 123.738 251.248 123.719C251.191 123.7 251.13 123.694 251.07 123.702Z" fill="white"/>
<path d="M250.901 126.774L249.436 125.028C249.397 124.981 249.349 124.943 249.294 124.917C249.239 124.891 249.179 124.877 249.119 124.877C249.058 124.877 248.998 124.891 248.943 124.917C248.888 124.943 248.84 124.981 248.802 125.028C248.571 125.333 248.392 125.674 248.273 126.038C248.255 126.095 248.25 126.156 248.259 126.216C248.268 126.275 248.29 126.332 248.324 126.382C248.357 126.432 248.402 126.474 248.455 126.504C248.507 126.534 248.565 126.552 248.626 126.557L250.901 126.774Z" fill="white"/>
<path d="M250.852 127.322L248.576 127.125C248.516 127.12 248.456 127.127 248.399 127.148C248.343 127.169 248.291 127.202 248.249 127.245C248.208 127.288 248.176 127.34 248.157 127.397C248.138 127.454 248.132 127.515 248.14 127.574C248.196 127.953 248.312 128.32 248.485 128.662C248.514 128.715 248.554 128.76 248.602 128.796C248.651 128.831 248.707 128.856 248.766 128.867C248.826 128.879 248.887 128.877 248.945 128.862C249.004 128.847 249.058 128.819 249.105 128.781L250.852 127.322Z" fill="white"/>
<path d="M252.078 124.2L251.873 126.466L253.627 125.007C253.675 124.969 253.712 124.921 253.739 124.866C253.765 124.811 253.778 124.752 253.778 124.691C253.778 124.631 253.765 124.571 253.739 124.516C253.712 124.462 253.675 124.414 253.627 124.375C253.321 124.146 252.978 123.968 252.613 123.849C252.554 123.829 252.492 123.822 252.43 123.829C252.369 123.836 252.309 123.858 252.258 123.892C252.206 123.926 252.162 123.971 252.131 124.025C252.1 124.078 252.082 124.138 252.078 124.2Z" fill="white"/>
<path d="M252.183 127.434L253.648 129.181C253.688 129.227 253.736 129.263 253.791 129.289C253.846 129.314 253.905 129.327 253.966 129.327C254.026 129.327 254.085 129.314 254.14 129.289C254.195 129.263 254.244 129.227 254.283 129.181C254.513 128.875 254.692 128.534 254.811 128.171C254.829 128.113 254.834 128.052 254.825 127.993C254.817 127.933 254.795 127.876 254.761 127.826C254.727 127.776 254.682 127.735 254.63 127.705C254.577 127.674 254.519 127.656 254.459 127.652L252.183 127.434Z" fill="white"/>
<path d="M252.233 126.887L254.508 127.083C254.568 127.089 254.629 127.081 254.685 127.061C254.742 127.04 254.793 127.007 254.835 126.963C254.877 126.92 254.908 126.868 254.927 126.811C254.947 126.754 254.952 126.694 254.945 126.634C254.89 126.256 254.773 125.888 254.6 125.547C254.572 125.493 254.532 125.446 254.483 125.41C254.435 125.374 254.378 125.349 254.319 125.337C254.259 125.326 254.197 125.328 254.139 125.344C254.08 125.359 254.026 125.388 253.98 125.428L252.233 126.887Z" fill="white"/>
<path d="M251.211 127.743L249.457 129.202C249.41 129.24 249.372 129.288 249.346 129.343C249.32 129.397 249.306 129.457 249.306 129.518C249.306 129.578 249.32 129.638 249.346 129.692C249.372 129.747 249.41 129.795 249.457 129.833C249.764 130.063 250.106 130.241 250.471 130.359C250.529 130.377 250.59 130.382 250.65 130.374C250.71 130.365 250.767 130.343 250.817 130.309C250.867 130.276 250.909 130.231 250.939 130.179C250.97 130.127 250.988 130.069 250.993 130.009L251.211 127.743Z" fill="white"/>
<path d="M251.761 127.792L251.563 130.051C251.556 130.111 251.563 130.172 251.584 130.23C251.604 130.287 251.637 130.339 251.681 130.381C251.724 130.424 251.777 130.456 251.834 130.475C251.892 130.495 251.954 130.501 252.014 130.493C252.394 130.437 252.763 130.321 253.106 130.149C253.16 130.121 253.207 130.082 253.244 130.033C253.28 129.985 253.305 129.929 253.317 129.869C253.328 129.81 253.326 129.749 253.31 129.69C253.294 129.632 253.266 129.578 253.226 129.532L251.761 127.792Z" fill="white"/>
</g>
<path d="M258.89 172.542L259.136 169.778C259.177 169.289 259.023 168.804 258.706 168.428C258.389 168.052 257.936 167.816 257.446 167.772L248.485 166.993C248.242 166.972 247.996 166.998 247.764 167.072C247.531 167.145 247.314 167.263 247.127 167.419C246.94 167.576 246.786 167.767 246.673 167.983C246.56 168.198 246.491 168.434 246.47 168.677L246.231 171.441C246.165 172.334 245.898 173.201 245.451 173.978C245.003 174.755 244.386 175.422 243.645 175.93C242.726 176.53 241.955 177.329 241.391 178.269C240.827 179.208 240.485 180.263 240.391 181.353L239.271 193.854C239.175 194.944 239.327 196.042 239.718 197.065C240.108 198.088 240.726 199.009 241.525 199.761C242.168 200.388 242.661 201.151 242.967 201.994C243.273 202.837 243.385 203.738 243.293 204.629L243.046 207.393C243.024 207.636 243.05 207.88 243.123 208.113C243.197 208.345 243.315 208.561 243.472 208.747C243.629 208.934 243.822 209.087 244.039 209.199C244.256 209.311 244.493 209.379 244.737 209.4L253.719 210.185C254.21 210.226 254.697 210.072 255.075 209.757C255.452 209.442 255.689 208.99 255.734 208.502L255.973 205.738C256.039 204.843 256.306 203.975 256.753 203.197C257.201 202.419 257.818 201.75 258.559 201.241C259.478 200.642 260.249 199.842 260.813 198.903C261.376 197.963 261.719 196.909 261.813 195.818L262.912 183.331C263.009 182.242 262.856 181.145 262.466 180.124C262.075 179.102 261.457 178.181 260.658 177.431C260.013 176.801 259.519 176.034 259.213 175.188C258.907 174.341 258.796 173.437 258.89 172.542Z" fill="#407BFF"/>
<path opacity="0.4" d="M258.89 172.542L259.136 169.778C259.177 169.289 259.023 168.804 258.706 168.428C258.389 168.052 257.936 167.816 257.446 167.772L248.485 166.993C248.242 166.972 247.996 166.998 247.764 167.072C247.531 167.145 247.314 167.263 247.127 167.419C246.94 167.576 246.786 167.767 246.673 167.983C246.56 168.198 246.491 168.434 246.47 168.677L246.231 171.441C246.165 172.334 245.898 173.201 245.451 173.978C245.003 174.755 244.386 175.422 243.645 175.93C242.726 176.53 241.955 177.329 241.391 178.269C240.827 179.208 240.485 180.263 240.391 181.353L239.271 193.854C239.175 194.944 239.327 196.042 239.718 197.065C240.108 198.088 240.726 199.009 241.525 199.761C242.168 200.388 242.661 201.151 242.967 201.994C243.273 202.837 243.385 203.738 243.293 204.629L243.046 207.393C243.024 207.636 243.05 207.88 243.123 208.113C243.197 208.345 243.315 208.561 243.472 208.747C243.629 208.934 243.822 209.087 244.039 209.199C244.256 209.311 244.493 209.379 244.737 209.4L253.719 210.185C254.21 210.226 254.697 210.072 255.075 209.757C255.452 209.442 255.689 208.99 255.734 208.502L255.973 205.738C256.039 204.843 256.306 203.975 256.753 203.197C257.201 202.419 257.818 201.75 258.559 201.241C259.478 200.642 260.249 199.842 260.813 198.903C261.376 197.963 261.719 196.909 261.813 195.818L262.912 183.331C263.009 182.242 262.856 181.145 262.466 180.124C262.075 179.102 261.457 178.181 260.658 177.431C260.013 176.801 259.519 176.034 259.213 175.188C258.907 174.341 258.796 173.437 258.89 172.542Z" fill="white"/>
<path d="M255.679 178.663L248.311 178.021C245.916 177.813 243.804 179.577 243.594 181.962L242.551 193.836C242.342 196.221 244.113 198.324 246.509 198.533L253.877 199.175C256.273 199.383 258.384 197.619 258.594 195.234L259.637 183.36C259.847 180.975 258.075 178.872 255.679 178.663Z" fill="#263238"/>
<path d="M265.118 185.12L264.054 185.024C263.763 184.998 263.505 185.213 263.478 185.503L263.184 188.758C263.158 189.049 263.373 189.306 263.665 189.332L264.729 189.427C265.021 189.453 265.278 189.239 265.305 188.948L265.599 185.693C265.625 185.403 265.41 185.146 265.118 185.12Z" fill="#407BFF"/>
<path d="M245.737 185.436C245.737 185.436 244.73 182.805 245.984 182.559C247.238 182.314 247.132 185.064 247.132 185.064L245.737 185.436Z" fill="white"/>
<path d="M246.005 185.843L247.238 185.667C247.238 185.667 247.52 186.6 246.773 186.692C246.026 186.783 246.005 185.843 246.005 185.843Z" fill="white"/>
<path d="M249.697 185.078C249.697 185.078 251.148 182.658 249.95 182.202C248.753 181.746 248.386 184.468 248.386 184.468L249.697 185.078Z" fill="white"/>
<path d="M249.45 185.436L248.267 185.05C248.267 185.05 247.738 185.913 248.464 186.13C249.189 186.348 249.45 185.436 249.45 185.436Z" fill="white"/>
<path d="M246.646 194.31C245.78 194.233 243.969 193.987 245.075 191.286C245.075 191.286 245.287 192.325 245.78 192.388C245.78 192.388 244.885 190.101 247.407 188.6C247.407 188.6 246.942 190.206 247.823 190.992C248.295 191.413 247.942 192.248 247.942 192.248C248.279 191.714 248.437 191.087 248.393 190.459C248.393 190.459 250.239 194.619 246.646 194.31Z" fill="white"/>
<path d="M256.72 186.137L251.655 185.695C251.554 185.689 251.455 185.663 251.365 185.618C251.274 185.573 251.194 185.51 251.128 185.434C251.062 185.357 251.012 185.268 250.982 185.172C250.952 185.076 250.941 184.975 250.95 184.875C250.956 184.774 250.981 184.675 251.026 184.584C251.071 184.494 251.134 184.413 251.211 184.347C251.288 184.282 251.378 184.232 251.475 184.202C251.572 184.172 251.674 184.162 251.775 184.173L256.84 184.615C256.941 184.62 257.04 184.646 257.131 184.69C257.222 184.735 257.303 184.798 257.369 184.875C257.435 184.951 257.485 185.041 257.515 185.137C257.545 185.234 257.555 185.335 257.544 185.436C257.537 185.536 257.51 185.634 257.465 185.724C257.419 185.813 257.356 185.893 257.28 185.958C257.203 186.024 257.114 186.073 257.018 186.104C256.922 186.135 256.821 186.146 256.72 186.137Z" fill="white"/>
<path d="M254.121 193.594L251.007 193.321C250.906 193.315 250.807 193.288 250.717 193.243C250.626 193.199 250.545 193.136 250.48 193.059C250.414 192.983 250.364 192.894 250.334 192.798C250.303 192.702 250.293 192.6 250.302 192.5C250.308 192.399 250.333 192.3 250.378 192.21C250.423 192.119 250.486 192.038 250.563 191.973C250.64 191.907 250.73 191.858 250.827 191.828C250.924 191.798 251.026 191.788 251.127 191.799L254.24 192.065C254.443 192.081 254.631 192.177 254.763 192.331C254.895 192.484 254.96 192.684 254.945 192.886C254.938 192.986 254.911 193.085 254.865 193.175C254.82 193.265 254.757 193.345 254.681 193.411C254.604 193.477 254.515 193.527 254.419 193.558C254.323 193.59 254.221 193.602 254.121 193.594Z" fill="white"/>
<path d="M198.468 143.555C198.468 143.555 204.379 152.85 209.148 154.737C213.917 156.624 225.047 148.718 225.047 148.718L229.457 147.498C229.736 147.392 229.984 147.218 230.179 146.993C230.373 146.768 230.508 146.497 230.57 146.207L231.204 143.317C231.249 143.107 231.25 142.89 231.206 142.68C231.163 142.47 231.076 142.271 230.951 142.096L230.444 141.394C230.313 141.21 230.143 141.057 229.946 140.945C229.748 140.834 229.529 140.767 229.303 140.75C229.077 140.732 228.85 140.765 228.638 140.845C228.426 140.925 228.234 141.05 228.077 141.212L224.026 145.358C224.026 145.358 213.6 150.269 211.501 148.129C209.401 145.989 209.423 146.024 205.013 140.083L198.468 143.555Z" fill="#FFB573"/>
<path d="M194.763 129.209C192.769 130.402 190.205 136.126 198.658 145.751L206.027 140.139C206.027 140.139 200.99 125.491 194.763 129.209Z" fill="#407BFF"/>
<path opacity="0.1" d="M203.864 141.794C202.237 135.361 199.948 132.92 199.948 132.92L198.468 134.968L195.798 138.714L196.503 143.036C197.13 143.906 197.848 144.804 198.672 145.751L203.864 141.794Z" fill="black"/>
<path d="M172.974 206.867C172.631 209.848 172.004 212.789 171.1 215.65C162.71 219.074 142.259 248.502 142.259 248.502L145.577 251.638C145.577 251.638 173.319 230.249 180.603 221.213C182.716 218.583 184.203 212.928 185.746 209.351C181.339 209.721 176.917 208.861 172.974 206.867Z" fill="#FFB573"/>
<path d="M146.338 250.747L142.52 247.24C142.439 247.167 142.336 247.123 142.228 247.115C142.119 247.108 142.011 247.137 141.921 247.197L137.828 250.004C137.74 250.063 137.665 250.139 137.607 250.227C137.549 250.315 137.509 250.414 137.489 250.517C137.47 250.621 137.471 250.728 137.493 250.831C137.515 250.934 137.557 251.032 137.617 251.119C137.65 251.164 137.688 251.207 137.729 251.245C139.336 252.648 140.829 253.883 142.802 255.693C145.133 257.797 144.281 257.573 146.986 260.126C148.62 261.663 150.649 260.07 150.036 259.334C147.219 255.994 147.219 254.171 147 251.891C146.923 251.443 146.688 251.038 146.338 250.747Z" fill="#263238"/>
<path opacity="0.1" d="M172.974 206.867C172.872 208.027 172.703 209.179 172.466 210.319C176.284 211.946 180.43 212.667 184.576 212.423C184.971 211.336 185.351 210.319 185.746 209.393C181.335 209.75 176.912 208.875 172.974 206.867Z" fill="black"/>
<path d="M173.657 184.826C173.77 191.778 172.523 201.311 172.051 207.218C174.432 208.383 180.265 210.845 186.288 210.347C189.252 203.554 191.722 196.559 193.678 189.413C196.291 179.985 195.791 166.537 195.791 166.537L171.959 165.092C171.029 179.522 173.657 184.826 173.657 184.826Z" fill="#263238"/>
<path opacity="0.5" d="M195.77 166.537L171.959 165.092C171.029 179.557 173.657 184.861 173.657 184.861C173.692 187.239 173.573 189.912 173.375 192.647C174.826 196.45 177.75 204.005 180.462 210.052C182.381 210.415 184.34 210.526 186.288 210.382C189.252 203.589 191.722 196.594 193.678 189.449C196.291 179.985 195.77 166.537 195.77 166.537Z" fill="black"/>
<path d="M199.208 217.215C198.799 214.324 195.883 203.83 195.883 203.83C190.05 206.937 186.02 207.933 183.808 208.214C184.865 210.683 186.943 215.713 187.915 217.881C187.915 217.881 187.007 228.186 199.405 268.531L204.386 267.745C204.386 267.745 200.983 229.772 199.208 217.215Z" fill="#FFB573"/>
<path d="M203.921 266.714L198.863 267.815C198.755 267.838 198.658 267.897 198.588 267.983C198.519 268.068 198.481 268.175 198.482 268.285V273.252C198.48 273.463 198.562 273.666 198.71 273.817C198.858 273.968 199.059 274.055 199.271 274.059H199.44C201.554 273.568 203.392 273.049 206.02 272.487C209.12 271.828 208.415 272.361 212.064 271.632C214.269 271.19 214.128 268.622 213.177 268.699C208.803 269.078 207.288 268.047 205.323 266.882C204.893 266.654 204.393 266.594 203.921 266.714Z" fill="#263238"/>
<path opacity="0.1" d="M195.883 203.83C190.05 206.937 186.02 207.933 183.808 208.214L184.872 210.726C189.029 209.986 192.984 208.388 196.482 206.032C196.129 204.713 195.883 203.83 195.883 203.83Z" fill="black"/>
<path d="M196.608 204.602C196.608 204.602 191.79 186.264 191.91 180.048C191.98 176.379 194.805 165.646 194.805 165.646L172.622 163.022C172.622 163.022 166.035 175.208 172.622 185.008C172.622 185.008 178.088 197.937 183.188 209.225C187.902 208.491 192.447 206.925 196.608 204.602Z" fill="#263238"/>
<path d="M184.534 112.401C184.611 114.877 184.062 118.013 181.913 119.5C180.885 120.202 179.631 120.588 178.785 121.549C177.94 122.51 177.574 123.744 177.074 124.832C176.905 125.197 177.454 125.533 177.63 125.147C178.335 123.646 178.8 122.124 180.237 121.177C181.512 120.335 182.78 119.949 183.674 118.623C184.791 116.747 185.314 114.578 185.175 112.401C185.175 111.994 184.52 111.994 184.534 112.401Z" fill="#1A2E35"/>
<path d="M184.865 109.223C184.865 109.223 185.429 104.067 177.961 106.901C170.811 109.609 173.53 113.565 166.796 117.185C160.061 120.805 170.635 123.555 168.204 126.74C165.774 129.925 173.939 130.247 176.179 124.516C178.419 118.785 181.533 120.51 183.625 117.655C184.858 115.972 185.393 112.401 185.393 112.401L184.865 109.223Z" fill="#1A2E35"/>
<path d="M189.021 117.185C189.021 117.185 188.486 119.36 186.422 118.588C184.358 117.816 188.035 118.364 189.021 117.185Z" fill="#1A2E35"/>
<path d="M187.049 113.025C186.657 112.933 186.252 112.907 185.851 112.948C185.724 113.016 185.609 113.106 185.513 113.214C185.454 113.277 185.379 113.323 185.296 113.349C185.214 113.375 185.126 113.379 185.041 113.362C184.956 113.344 184.878 113.305 184.812 113.249C184.747 113.192 184.697 113.12 184.668 113.039C184.39 112.3 184.274 111.511 184.326 110.723C184.379 109.936 184.598 109.169 184.971 108.472C184.971 108.472 185.358 109.174 185.598 109.23C185.957 109.307 186.929 108.627 186.929 108.627L187.049 113.025Z" fill="#407BFF"/>
<path d="M170.748 163.773C170.748 163.773 188.479 166.579 197.404 166.796C197.219 162.614 197.642 158.427 198.658 154.365C200.314 148.508 204.998 143.562 199.299 131.454C196.2 124.832 178.264 123.913 175.538 130.1C172.713 136.491 180.272 140.111 170.748 163.773Z" fill="#407BFF"/>
<path d="M195.115 124.095L190.318 118.588C190.382 120.009 190.094 121.424 189.48 122.709C188.866 123.993 187.944 125.108 186.795 125.954C186.795 125.954 187.281 129.405 194.699 135.677C199.314 132.331 196.038 128.255 196.038 128.255C196.038 128.255 193.34 126.508 195.115 124.095Z" fill="#FFB573"/>
<path opacity="0.1" d="M194.735 126.74C194.542 126.308 194.475 125.83 194.542 125.363C194.61 124.895 194.808 124.455 195.115 124.095L190.318 118.588C190.348 119.262 190.301 119.938 190.177 120.601C190.483 121.877 191.045 123.078 191.828 124.133C192.611 125.187 193.599 126.074 194.735 126.74Z" fill="black"/>
<path d="M188.859 110.647C188.507 116.055 188.246 118.363 190.62 121.422C194.185 126.087 200.934 125.33 202.906 120.138C204.674 115.459 204.956 107.371 199.94 104.607C198.84 103.986 197.598 103.656 196.333 103.647C195.068 103.638 193.822 103.951 192.712 104.556C191.602 105.161 190.666 106.038 189.992 107.103C189.318 108.169 188.928 109.389 188.859 110.647Z" fill="#FFB573"/>
<path d="M197.271 113.13C197.221 113.565 197.411 113.951 197.693 113.993C197.975 114.035 198.257 113.699 198.32 113.292C198.384 112.885 198.179 112.471 197.898 112.429C197.616 112.387 197.348 112.717 197.271 113.13Z" fill="#263238"/>
<path d="M202.23 113.769C202.174 114.211 202.364 114.59 202.646 114.625C202.927 114.66 203.209 114.337 203.273 113.923C203.336 113.509 203.132 113.095 202.85 113.067C202.568 113.039 202.286 113.334 202.23 113.769Z" fill="#263238"/>
<path d="M202.695 113.053L203.787 112.885C203.787 112.885 203.167 113.635 202.695 113.053Z" fill="#263238"/>
<path d="M200.582 114.365C200.848 115.412 201.258 116.417 201.8 117.353C201.555 117.482 201.284 117.556 201.007 117.572C200.73 117.588 200.453 117.544 200.194 117.444L200.582 114.365Z" fill="#ED893E"/>
<path d="M197.602 118.855C197.811 118.918 198.025 118.96 198.243 118.981C198.259 118.984 198.277 118.984 198.293 118.98C198.31 118.976 198.325 118.969 198.339 118.96C198.353 118.95 198.365 118.937 198.373 118.923C198.382 118.909 198.388 118.893 198.391 118.876C198.393 118.841 198.382 118.806 198.36 118.779C198.337 118.752 198.306 118.734 198.271 118.729C197.726 118.67 197.201 118.485 196.74 118.189C196.279 117.894 195.894 117.494 195.615 117.024C195.6 116.993 195.573 116.968 195.54 116.957C195.507 116.945 195.471 116.946 195.439 116.961C195.408 116.976 195.383 117.003 195.371 117.036C195.36 117.068 195.361 117.104 195.376 117.136C195.613 117.556 195.932 117.924 196.314 118.219C196.697 118.515 197.134 118.731 197.602 118.855Z" fill="#263238"/>
<path d="M195.404 111.889C195.457 111.906 195.514 111.906 195.567 111.887C195.619 111.867 195.663 111.831 195.693 111.784C195.974 111.468 196.317 111.213 196.701 111.036C197.085 110.859 197.502 110.762 197.926 110.752C197.994 110.751 198.06 110.723 198.108 110.674C198.157 110.626 198.185 110.561 198.186 110.493C198.185 110.425 198.156 110.361 198.108 110.314C198.059 110.267 197.994 110.24 197.926 110.24C197.418 110.248 196.917 110.364 196.459 110.582C196.001 110.8 195.595 111.114 195.27 111.503C195.251 111.531 195.238 111.562 195.232 111.594C195.225 111.627 195.225 111.66 195.232 111.693C195.239 111.725 195.251 111.756 195.27 111.784C195.289 111.812 195.313 111.835 195.34 111.854C195.358 111.871 195.38 111.883 195.404 111.889Z" fill="#263238"/>
<path d="M204.005 111.678C204.049 111.689 204.096 111.689 204.14 111.678C204.184 111.667 204.225 111.646 204.259 111.615C204.307 111.566 204.334 111.501 204.334 111.433C204.334 111.364 204.307 111.299 204.259 111.25C203.982 110.937 203.632 110.697 203.241 110.55C202.849 110.403 202.427 110.355 202.012 110.408C201.948 110.42 201.89 110.456 201.851 110.508C201.812 110.56 201.794 110.624 201.8 110.689C201.805 110.722 201.817 110.754 201.835 110.783C201.853 110.812 201.876 110.837 201.904 110.856C201.931 110.876 201.962 110.89 201.996 110.897C202.029 110.905 202.063 110.905 202.096 110.899C202.423 110.873 202.752 110.922 203.056 111.044C203.361 111.166 203.633 111.356 203.85 111.601C203.891 111.644 203.946 111.672 204.005 111.678Z" fill="#263238"/>
<path d="M197.764 112.478L198.849 112.303C198.849 112.303 198.215 113.011 197.764 112.478Z" fill="#263238"/>
<path d="M190.177 114.632C191.289 113.432 191.929 111.872 191.98 110.24C192.051 107.518 196.341 104.586 201.843 106.143C201.843 106.143 203.421 101.233 199.518 103.281C199.518 103.281 193.29 99.072 187.944 105.316C184.224 109.665 186.239 114.386 187.81 116.856C187.916 117.023 188.068 117.157 188.249 117.24C188.43 117.322 188.632 117.35 188.828 117.32C189.025 117.291 189.209 117.204 189.357 117.072C189.505 116.939 189.612 116.767 189.662 116.575L190.177 114.632Z" fill="#263238"/>
<path d="M186.873 114.583C186.978 115.08 187.181 115.552 187.47 115.971C187.759 116.389 188.128 116.747 188.556 117.024C189.712 117.725 190.67 116.82 190.705 115.516C190.705 114.351 190.113 112.562 188.796 112.331C188.502 112.289 188.203 112.322 187.926 112.426C187.649 112.53 187.402 112.703 187.21 112.928C187.018 113.153 186.886 113.423 186.827 113.712C186.768 114.001 186.784 114.301 186.873 114.583Z" fill="#FFB573"/>
<path d="M201.349 106.017C201.349 106.017 203.42 105.133 204.026 107.252C204.632 109.37 202.892 106.094 201.349 106.017Z" fill="#1A2E35"/>
<path d="M198.701 105.624C198.701 105.624 196.46 105.856 196.968 108.002C197.475 110.149 197.39 106.445 198.701 105.624Z" fill="#1A2E35"/>
<path d="M188.535 114.526C188.681 114.554 188.82 114.61 188.943 114.692C189.067 114.773 189.173 114.878 189.256 115.001C189.338 115.124 189.396 115.262 189.424 115.406C189.453 115.551 189.453 115.701 189.423 115.845C189.367 116.207 189.409 116.577 189.544 116.917C189.678 117.257 189.902 117.555 190.191 117.781C190.128 117.882 190.042 117.967 189.941 118.029C189.839 118.091 189.725 118.129 189.606 118.139C189.606 118.139 186.535 115.116 188.535 114.526Z" fill="#407BFF"/>
<path opacity="0.5" d="M188.535 114.526C188.681 114.554 188.82 114.61 188.943 114.692C189.067 114.773 189.173 114.878 189.256 115.001C189.338 115.124 189.396 115.262 189.424 115.406C189.453 115.551 189.453 115.701 189.423 115.845C189.367 116.207 189.409 116.577 189.544 116.917C189.678 117.257 189.902 117.555 190.191 117.781C190.128 117.882 190.042 117.967 189.941 118.029C189.839 118.091 189.725 118.129 189.606 118.139C189.606 118.139 186.535 115.116 188.535 114.526Z" fill="white"/>
<path opacity="0.1" d="M183.301 135.025L181.11 133.86L174.96 136.077L174.763 136.589C174.904 140.244 175.369 144.923 174.495 151.377C182.681 141.24 183.301 135.025 183.301 135.025Z" fill="black"/>
<path d="M178.518 140.188C178.518 140.188 174.228 150.332 169.839 152.977C165.45 155.621 153.164 149.658 153.164 149.658L148.613 149.174C148.32 149.118 148.045 148.989 147.815 148.799C147.584 148.609 147.406 148.364 147.296 148.087L146.197 145.344C146.117 145.146 146.079 144.933 146.086 144.719C146.093 144.505 146.146 144.295 146.239 144.102L146.627 143.324C146.726 143.121 146.868 142.942 147.044 142.799C147.22 142.657 147.425 142.556 147.645 142.501C147.865 142.447 148.094 142.442 148.316 142.486C148.538 142.53 148.748 142.622 148.93 142.755L153.615 146.179C153.615 146.179 164.717 149.329 166.429 146.88C168.141 144.432 168.12 144.425 171.487 137.88L178.518 140.188Z" fill="#FFB573"/>
<path d="M181.772 127.49C183.766 128.683 186.323 134.407 177.87 144.025L170.501 138.413C170.501 138.413 175.545 123.765 181.772 127.49Z" fill="#407BFF"/>
<path d="M149.269 145.618L148.416 145.548C151.762 105.112 146.028 103.667 138.772 101.836C135.067 100.896 130.84 99.8505 127.388 93.4246C124.19 87.4687 126.599 81.0147 133.82 76.1462C142.231 70.4779 155.447 67.9665 168.338 69.58C184.059 71.5248 198.431 79.4016 208.493 91.5866C218.186 103.078 221.215 112.878 223.653 120.756C223.878 121.457 224.096 122.159 224.315 122.86C228.542 136.301 228.112 143.576 228.091 143.906L227.238 143.85C227.238 143.773 227.689 136.407 223.498 123.148L222.835 121.043C220.419 113.243 217.418 103.505 207.838 92.1689C185.393 65.5533 150.114 66.2127 134.306 76.8828C127.381 81.5549 125.148 87.4477 128.149 93.0598C131.41 99.135 135.264 100.075 138.99 101.05C142.717 102.025 146.211 102.867 148.289 108.767C150.508 115.13 150.825 126.845 149.269 145.618Z" fill="#407BFF"/>
<g opacity="0.3">
<path d="M149.269 145.618L148.416 145.548C151.762 105.112 146.028 103.667 138.772 101.836C135.067 100.896 130.84 99.8505 127.388 93.4246C124.19 87.4687 126.599 81.0147 133.82 76.1462C142.231 70.4779 155.447 67.9665 168.338 69.58C184.059 71.5248 198.431 79.4016 208.493 91.5866C218.186 103.078 221.215 112.878 223.653 120.756C223.878 121.457 224.096 122.159 224.315 122.86C228.542 136.301 228.112 143.576 228.091 143.906L227.238 143.85C227.238 143.773 227.689 136.407 223.498 123.148L222.835 121.043C220.419 113.243 217.418 103.505 207.838 92.1689C185.393 65.5533 150.114 66.2127 134.306 76.8828C127.381 81.5549 125.148 87.4477 128.149 93.0598C131.41 99.135 135.264 100.075 138.99 101.05C142.717 102.025 146.211 102.867 148.289 108.767C150.508 115.13 150.825 126.845 149.269 145.618Z" fill="white"/>
</g>
<path d="M150.269 140.616H147.423V150.556H150.269V140.616Z" fill="#407BFF"/>
<path opacity="0.1" d="M150.269 140.616H147.423V142.313H150.269V140.616Z" fill="black"/>
<path opacity="0.1" d="M150.269 149.42H147.423V150.556H150.269V149.42Z" fill="black"/>
<path d="M150.276 141.401H147.409C147.2 141.401 146.999 141.319 146.851 141.171C146.703 141.024 146.62 140.824 146.62 140.616C146.62 140.407 146.703 140.208 146.851 140.06C146.999 139.913 147.2 139.83 147.409 139.83H150.276C150.485 139.83 150.686 139.913 150.834 140.06C150.982 140.208 151.065 140.407 151.065 140.616C151.065 140.824 150.982 141.024 150.834 141.171C150.686 141.319 150.485 141.401 150.276 141.401Z" fill="#407BFF"/>
<path d="M150.276 151.665H147.409C147.2 151.665 146.999 151.582 146.851 151.435C146.703 151.288 146.62 151.088 146.62 150.879C146.622 150.672 146.706 150.474 146.853 150.328C147.001 150.182 147.201 150.101 147.409 150.101H150.276C150.484 150.101 150.684 150.182 150.831 150.328C150.979 150.474 151.063 150.672 151.065 150.879C151.065 151.088 150.982 151.288 150.834 151.435C150.686 151.582 150.485 151.665 150.276 151.665Z" fill="#407BFF"/>
<path d="M229.077 138.89H226.231V148.831H229.077V138.89Z" fill="#407BFF"/>
<path opacity="0.1" d="M229.077 138.89H226.231V140.588H229.077V138.89Z" fill="black"/>
<path opacity="0.1" d="M229.077 147.694H226.231V148.831H229.077V147.694Z" fill="black"/>
<path d="M229.091 139.676H226.224C226.015 139.676 225.814 139.593 225.666 139.446C225.518 139.298 225.435 139.098 225.435 138.89C225.437 138.683 225.521 138.485 225.668 138.339C225.816 138.193 226.016 138.111 226.224 138.111H229.091C229.299 138.111 229.499 138.193 229.647 138.339C229.794 138.485 229.878 138.683 229.88 138.89C229.88 139.098 229.797 139.298 229.649 139.446C229.501 139.593 229.3 139.676 229.091 139.676Z" fill="#407BFF"/>
<path d="M229.091 149.946H226.224C226.015 149.946 225.814 149.863 225.666 149.716C225.518 149.568 225.435 149.369 225.435 149.16C225.435 148.952 225.518 148.752 225.666 148.605C225.814 148.457 226.015 148.375 226.224 148.375H229.091C229.3 148.375 229.501 148.457 229.649 148.605C229.797 148.752 229.88 148.952 229.88 149.16C229.88 149.369 229.797 149.568 229.649 149.716C229.501 149.863 229.3 149.946 229.091 149.946Z" fill="#407BFF"/>
<path d="M100.421 133.523C100.421 133.523 90.9039 137.774 86.2474 136.028C81.5909 134.281 76.6949 120.194 76.6949 120.194L73.6728 116.224C73.4688 115.956 73.3584 115.63 73.3584 115.294C73.3584 114.958 73.4688 114.632 73.6728 114.365L76.1736 111.124C76.351 110.897 76.5757 110.711 76.8324 110.578C77.0891 110.446 77.3714 110.372 77.66 110.359H77.8221C78.0912 110.348 78.3596 110.393 78.6108 110.489C78.862 110.586 79.0906 110.733 79.2827 110.921C79.4747 111.109 79.6261 111.334 79.7275 111.582C79.8288 111.831 79.878 112.097 79.8721 112.365L79.7664 117.276C79.7664 117.276 87.2689 129.244 90.1995 129.054C93.13 128.865 97.9063 126.873 97.9063 126.873L100.421 133.523Z" fill="#FFC3BD"/>
<path d="M109.748 126.227C110.086 128.332 109.044 133.811 96.7368 135.789L94.8418 127.469C94.8418 127.469 108.544 118.714 109.748 126.227Z" fill="#263238"/>
<path d="M80.2736 111.51C81.5135 113.074 83.4507 113.614 84.592 112.723C85.7332 111.832 85.6486 109.833 84.4017 108.262C83.1549 106.69 81.2317 106.157 80.0904 107.041C78.9492 107.925 79.0267 109.938 80.2736 111.51Z" fill="#407BFF"/>
<path opacity="0.2" d="M80.2736 111.509C79.8179 111.002 79.5112 110.38 79.3869 109.71C79.2627 109.041 79.3257 108.35 79.5691 107.714C80.5413 107.202 82.1545 107.89 83.3168 109.356C84.296 110.597 84.6483 112.008 84.3031 112.919C83.1266 113.523 81.4148 112.948 80.2736 111.509Z" fill="black"/>
<path d="M72.2498 117.809C72.7852 118.511 75.3564 117.346 77.9911 115.277C80.6258 113.207 82.3377 110.977 81.8023 110.303C81.2669 109.63 78.6956 110.759 76.0609 112.836C73.4262 114.912 71.7144 117.129 72.2498 117.809Z" fill="#407BFF"/>
<path opacity="0.2" d="M75.5255 116.96C73.9053 117.893 72.6091 118.265 72.2498 117.809C71.8905 117.353 72.5809 116.139 73.9123 114.757C74.2344 114.999 74.5233 115.282 74.7718 115.599C75.094 116.01 75.3484 116.469 75.5255 116.96Z" fill="black"/>
<path d="M69.5517 119.921C70.7915 121.492 72.7218 122.025 73.863 121.141C75.0042 120.257 74.9267 118.244 73.6798 116.68C72.4329 115.115 70.5027 114.575 69.3615 115.459C68.2202 116.343 68.3118 118.349 69.5517 119.921Z" fill="#407BFF"/>
<path opacity="0.6" d="M107.339 131.671C105.602 133.092 103.583 134.132 101.414 134.723C101.527 126.305 105.641 126.207 105.641 126.207L106.423 126.656L107.339 131.671Z" fill="black"/>
<path d="M118.899 196.877L114.116 211.735C114.774 215.905 114.774 220.151 114.116 224.321C113.031 231.392 106.888 268.579 106.888 268.579L102.274 269.127C102.274 269.127 102.978 221.465 103.922 211.153C104.866 200.841 106.036 193.468 106.036 193.468L118.899 196.877Z" fill="#FFC3BD"/>
<path opacity="0.1" d="M106.029 193.468L118.899 196.877L115.821 206.481L104.606 204.552C105.359 197.824 106.029 193.468 106.029 193.468Z" fill="black"/>
<path d="M128.128 197.438C128.128 197.438 133.404 219.705 152.784 267.983L157.201 266.875C157.201 266.875 148.536 216.723 143.238 211.167L140.561 194.268L128.128 197.438Z" fill="#FFC3BD"/>
<path opacity="0.1" d="M140.54 194.268L142.111 203.977L130.537 206.081C128.797 200.245 128.156 197.459 128.156 197.459L140.54 194.268Z" fill="black"/>
<path d="M127.317 181.023C127.317 181.023 123.584 184.453 122.619 187.231C121.654 190.009 116.983 204.987 116.983 204.987L104.303 202.714C104.303 202.714 105.613 188.684 107.043 178.666C108.473 168.648 109.579 162.769 109.403 161.921L133.355 159.907C133.355 159.907 138.152 177.361 127.317 181.023Z" fill="#407BFF"/>
<path opacity="0.1" d="M123.288 171.153L127.254 181.065C126.831 181.465 123.506 184.636 122.605 187.232C122.351 187.933 121.865 189.455 121.273 191.307C119.484 181.262 120.463 170.22 120.463 170.22L123.288 171.153Z" fill="black"/>
<path d="M120.167 161.998C120.167 161.998 117.85 169.995 124.267 187C126.035 191.693 128.881 204.25 128.881 204.25L142.59 201.521L139.624 184.888C139.624 184.888 140.23 168.388 135.56 160.447L120.167 161.998Z" fill="#407BFF"/>
<path d="M102.33 268.068L107.128 267.984C107.229 267.981 107.328 268.014 107.408 268.077C107.488 268.14 107.543 268.228 107.564 268.327L109.297 272.894C109.319 272.989 109.322 273.086 109.306 273.182C109.29 273.278 109.255 273.369 109.203 273.451C109.152 273.533 109.084 273.604 109.005 273.66C108.925 273.717 108.836 273.757 108.741 273.778H108.586C106.585 273.778 104.817 273.638 102.33 273.638C99.3997 273.638 100.146 273.988 96.6946 274.038C94.6164 274.038 94.236 271.716 95.1166 271.596C99.1461 271.091 99.5618 269.885 101.119 268.446C101.464 268.179 101.894 268.045 102.33 268.068Z" fill="#263238"/>
<path d="M152.439 266.966L157.116 265.879C157.215 265.859 157.318 265.873 157.407 265.919C157.497 265.965 157.568 266.04 157.609 266.131L160.265 270.235C160.347 270.413 160.355 270.616 160.288 270.8C160.221 270.984 160.084 271.134 159.906 271.217C159.859 271.24 159.809 271.257 159.758 271.267C157.8 271.652 156.038 271.912 153.615 272.431C150.748 273.041 151.551 273.231 148.191 273.995C146.169 274.451 145.302 272.235 146.141 271.94C149.973 270.607 150.128 269.337 151.347 267.612C151.618 267.27 152.007 267.04 152.439 266.966Z" fill="#263238"/>
<path d="M106.966 99.0295C106.966 99.0295 103.711 98.7559 105.451 103.533L107.564 101.548L108.973 98.8892L106.966 99.0295Z" fill="#263238"/>
<path opacity="0.6" d="M106.966 99.0295C106.966 99.0295 103.711 98.7559 105.451 103.533L107.564 101.548L108.973 98.8892L106.966 99.0295Z" fill="black"/>
<path d="M136.412 161.338C136.412 161.338 130.967 161.822 108.882 163.106C108.882 163.106 107.649 157.431 106.064 147.729C104.282 136.666 102.246 126.48 104.873 123.73C107.86 120.608 122.069 121.043 128.6 121.057C129.613 121.059 130.59 121.437 131.34 122.116C132.09 122.795 132.559 123.728 132.657 124.733L136.412 161.338Z" fill="#263238"/>
<path d="M123.675 121.029C123.64 122.523 122.316 125.666 114.926 131.391C114.926 131.391 109.29 125.968 109.847 121.822C113.799 121.12 119.202 121.022 123.675 121.029Z" fill="#407BFF"/>
<path d="M114.898 129.546C114.898 129.546 110.58 123.828 111.756 121.534C114.99 121.197 118.24 121.031 121.492 121.036C121.485 122.117 120.78 124.951 114.898 129.546Z" fill="#FFC3BD"/>
<path d="M114.771 127.911L111.953 123C114.067 121.478 113.581 120.089 112.446 117.999L117.427 110.983C117.631 114.491 118.237 119.479 121.139 121.092C121.191 121.659 121.086 122.229 120.837 122.741L114.771 127.911Z" fill="#FFC3BD"/>
<path opacity="0.2" d="M113.228 119.717C113.01 119.128 112.744 118.558 112.432 118.013L115.56 113.586C116.208 113.803 117.293 113.544 117.673 113.916C117.673 114.14 117.737 114.365 117.779 114.617C117.511 116.301 115.342 118.84 113.228 119.717Z" fill="black"/>
<path d="M119.646 105.097C119.85 110.401 120.048 112.639 117.645 115.62C114.031 120.096 107.445 119.177 105.669 114.042C104.063 109.419 104 101.492 108.98 98.9101C110.075 98.3295 111.3 98.0371 112.539 98.0609C113.779 98.0847 114.992 98.4238 116.063 99.0459C117.134 99.6681 118.027 100.553 118.658 101.615C119.289 102.678 119.636 103.884 119.667 105.119L119.646 105.097Z" fill="#FFC3BD"/>
<path d="M111.347 107.308C111.39 107.742 111.192 108.107 110.918 108.142C110.643 108.177 110.368 107.841 110.326 107.441C110.284 107.041 110.481 106.641 110.756 106.613C111.03 106.585 111.284 106.908 111.347 107.308Z" fill="#1A2E35"/>
<path d="M106.48 107.798C106.522 108.24 106.325 108.605 106.05 108.633C105.775 108.661 105.5 108.332 105.458 107.932C105.416 107.532 105.613 107.132 105.888 107.111C106.163 107.09 106.437 107.378 106.48 107.798Z" fill="#1A2E35"/>
<path d="M108.065 108.43C107.775 109.449 107.346 110.424 106.79 111.327C107.027 111.459 107.29 111.539 107.561 111.562C107.831 111.585 108.104 111.55 108.36 111.46L108.065 108.43Z" fill="#FF8935"/>
<path d="M110.875 112.906C110.667 112.959 110.455 112.994 110.241 113.011C110.209 113.015 110.176 113.006 110.15 112.987C110.123 112.967 110.106 112.938 110.1 112.906C110.1 112.872 110.112 112.839 110.134 112.813C110.156 112.787 110.187 112.77 110.22 112.765C110.758 112.725 111.278 112.558 111.738 112.279C112.199 111.999 112.586 111.616 112.869 111.159C112.877 111.144 112.888 111.131 112.901 111.12C112.915 111.109 112.93 111.102 112.947 111.097C112.963 111.092 112.98 111.091 112.997 111.093C113.014 111.096 113.03 111.101 113.045 111.11C113.075 111.125 113.097 111.151 113.108 111.182C113.119 111.214 113.116 111.248 113.101 111.278C112.857 111.683 112.535 112.035 112.153 112.315C111.771 112.594 111.336 112.795 110.875 112.906Z" fill="#1A2E35"/>
<path d="M113.228 106.164C113.175 106.178 113.12 106.174 113.069 106.154C113.018 106.134 112.975 106.098 112.947 106.051C112.685 105.74 112.363 105.485 112 105.302C111.637 105.119 111.24 105.011 110.833 104.985C110.799 104.984 110.765 104.977 110.734 104.963C110.703 104.949 110.674 104.929 110.651 104.904C110.627 104.879 110.609 104.85 110.597 104.818C110.584 104.787 110.579 104.753 110.58 104.719C110.583 104.653 110.612 104.591 110.661 104.547C110.71 104.502 110.774 104.478 110.84 104.48C111.338 104.501 111.825 104.629 112.268 104.854C112.712 105.079 113.102 105.397 113.411 105.785C113.446 105.841 113.457 105.908 113.443 105.972C113.428 106.037 113.389 106.093 113.334 106.129C113.304 106.153 113.267 106.165 113.228 106.164Z" fill="#1A2E35"/>
<path d="M104.775 105.708C104.732 105.721 104.686 105.721 104.643 105.71C104.599 105.699 104.56 105.677 104.528 105.645C104.48 105.596 104.453 105.531 104.453 105.462C104.453 105.394 104.48 105.328 104.528 105.28C104.807 104.981 105.155 104.756 105.542 104.624C105.929 104.492 106.343 104.457 106.747 104.522C106.779 104.527 106.809 104.539 106.836 104.556C106.864 104.573 106.887 104.595 106.906 104.621C106.924 104.647 106.937 104.677 106.944 104.708C106.95 104.739 106.951 104.771 106.945 104.803C106.938 104.835 106.925 104.865 106.906 104.892C106.888 104.919 106.864 104.942 106.836 104.959C106.809 104.977 106.778 104.989 106.746 104.995C106.714 105 106.681 104.999 106.649 104.992C106.331 104.954 106.008 104.99 105.707 105.099C105.406 105.207 105.135 105.385 104.916 105.617C104.881 105.662 104.831 105.695 104.775 105.708Z" fill="#1A2E35"/>
<path d="M118.075 109.763L116.349 109.44C116.349 109.44 117.483 105.504 116.673 104.529C115.863 103.554 114.003 102.712 113.397 100.832C112.791 98.9523 103.535 102.649 105.035 94.9045C105.035 94.9045 105.74 97.0091 106.789 97.7737C106.789 97.7737 105.247 92.4632 111.122 93.0525C116.997 93.6418 120.696 99.759 120.696 99.759C120.696 99.759 128.29 104.712 120.428 111.979C120.291 112.106 120.126 112.198 119.946 112.248C119.766 112.298 119.577 112.304 119.394 112.266C119.212 112.229 119.041 112.148 118.896 112.031C118.751 111.914 118.636 111.764 118.561 111.594L118.075 109.763Z" fill="#263238"/>
<path d="M121.492 109.005C121.376 109.49 121.165 109.947 120.871 110.35C120.577 110.753 120.207 111.095 119.78 111.355C118.624 112.056 117.666 111.095 117.716 109.826C117.716 108.682 118.371 106.942 119.667 106.753C120.121 106.703 120.575 106.834 120.933 107.116C121.29 107.399 121.521 107.81 121.576 108.261C121.605 108.512 121.576 108.767 121.492 109.005Z" fill="#FFC3BD"/>
<path d="M120.421 100.124C120.421 100.124 122.499 97.0299 124.331 99.5203C126.162 102.011 121.872 99.2327 120.421 100.124Z" fill="#263238"/>
<path d="M119.449 108.633C119.276 108.666 119.111 108.733 118.964 108.829C118.817 108.926 118.691 109.05 118.592 109.196C118.494 109.341 118.426 109.505 118.391 109.677C118.357 109.849 118.357 110.026 118.392 110.198C118.392 110.198 118.723 111.264 117.483 112.499C117.56 112.619 117.663 112.719 117.785 112.792C117.908 112.865 118.046 112.909 118.188 112.92C118.188 112.92 121.823 109.328 119.449 108.633Z" fill="#407BFF"/>
<path opacity="0.8" d="M119.449 108.633C119.276 108.666 119.111 108.733 118.964 108.829C118.817 108.926 118.691 109.05 118.592 109.196C118.494 109.341 118.426 109.505 118.391 109.677C118.357 109.849 118.357 110.026 118.392 110.198C118.392 110.198 118.723 111.264 117.483 112.499C117.56 112.619 117.663 112.719 117.785 112.792C117.908 112.865 118.046 112.909 118.188 112.92C118.188 112.92 121.823 109.328 119.449 108.633Z" fill="white"/>
<path opacity="0.6" d="M133.031 128.493L133.855 137.283C130.982 135.087 128.985 131.948 128.219 128.423L130.269 127.904L133.031 128.493Z" fill="black"/>
<path d="M134.51 130.598C134.51 130.598 145.5 131.72 149.938 129.153C154.376 126.585 156.454 112.085 156.454 112.085L158.666 106.571C158.85 106.111 158.865 105.602 158.709 105.133C158.553 104.663 158.236 104.263 157.814 104.003L155.792 102.769C155.37 102.512 154.872 102.41 154.383 102.481L153.629 102.593C153.099 102.673 152.619 102.951 152.286 103.371C151.954 103.79 151.794 104.32 151.84 104.852L152.382 111.166C152.382 111.166 149.191 122.909 146.183 123.211C143.175 123.513 143.21 123.513 135.82 123.309L134.51 130.598Z" fill="#FFC3BD"/>
<path d="M125.909 125.512C125.824 127.904 127.578 132.218 140.399 131.552L140.54 122.32C140.54 122.32 126.155 117.494 125.909 125.512Z" fill="#263238"/>
<path d="M152.143 104.095C151.276 105.898 149.515 106.852 148.205 106.199C146.895 105.547 146.535 103.611 147.402 101.808C148.268 100.005 150.029 99.0507 151.34 99.7031C152.65 100.356 153.009 102.292 152.143 104.095Z" fill="#407BFF"/>
<path opacity="0.2" d="M152.143 104.095C152.477 103.502 152.642 102.83 152.618 102.15C152.595 101.471 152.384 100.811 152.009 100.243C150.945 99.9556 149.522 100.945 148.712 102.663C148.008 104.067 148.008 105.54 148.536 106.346C149.804 106.683 151.347 105.75 152.143 104.095Z" fill="black"/>
<path d="M161.357 108.493C160.991 109.265 158.229 108.725 155.2 107.279C152.171 105.834 150.008 104.031 150.382 103.26C150.755 102.488 153.516 103.028 156.546 104.473C159.575 105.919 161.731 107.714 161.357 108.493Z" fill="#407BFF"/>
<path opacity="0.2" d="M157.976 108.381C159.765 108.935 161.111 109.012 161.357 108.493C161.604 107.974 160.653 106.936 159.068 105.876C158.806 106.183 158.586 106.523 158.412 106.887C158.188 107.358 158.041 107.863 157.976 108.381Z" fill="black"/>
<path d="M164.457 109.966C163.59 111.769 161.822 112.723 160.512 112.07C159.201 111.418 158.842 109.475 159.709 107.672C160.575 105.869 162.343 104.915 163.654 105.567C164.964 106.22 165.358 108.163 164.457 109.966Z" fill="#407BFF"/>
</g>
</g>
<defs>
<clipPath id="clip0_247_585">
<rect width="304" height="304" rx="152" fill="white"/>
</clipPath>
<clipPath id="clip1_247_585">
<rect width="352.231" height="258.692" fill="white" transform="translate(-24.8462 23.3848)"/>
</clipPath>
</defs>
</svg>
